<?xml version="1.0" encoding="UTF-8"?><svg id="b" xmlns="http://www.w3.org/2000/svg" viewBox="0 0 657.26 700"><path d="M610.36,136.55c.48,3.34,2.41,5.38,3.17,7.61.78,2.29.71,4.99,2.72,7.71,1.7,2.31,4.24,5.35,7,7.23,3.66,2.49,8.15,3.27,9.7,2.46,1.32-.7.98-4.23-.21-7.35-1.12-2.95-2.31-6.14-2.77-6.97-1.56-2.83-4.17-5.23-6.45-7.58-2.29-2.36-4.96-4.43-7.9-5.85-1.76-.84-5.82-1.17-5.26,2.75Z" style="fill:#fabe00;"/><path d="M596.91,116.1c1.43,1.68,3.08,3.52,5.04,5.13,2.02,1.57,4.65,2.3,6.84,3.71,2.13,1.46,3.75,3.97,5.88,5.04,4.44,2.11,8.22,1.85,10.59,2.08,2.37.22,4.17-.73,3.6-1.77-.55-1.05-3.27-1.49-4.36-3.28-1.12-1.99-.98-5.41-2.94-7.69-1.64-1.91-3.54-4.08-5.66-5.92-2.15-1.68-5.04-1.96-7.1-2.9-2.55-1.16-4.92-1.66-7.1-1.76-3.92-.76-5.75-.42-6.42.83-1.07,1.98.76,5.48,1.62,6.52Z" style="fill:#fabe00;"/><path d="M560.6,84.75c-1.43,1.38-2.2,4.17-.8,5.57,1.7,1.7,5.15,1.76,7.63,3.37,2.16,1.39,4.11,3.3,6.64,4.49,2.41,1.14,4.79,2.45,7.37,3.3,2.6.86,5.26,1.37,7.86,1.83,3.26.44,5.92,1.4,8.35,1.39,2.41.02,4.44-.59,6.09-.87,3.29-.57,3.68-4.79.07-8.72-1.76-2.01-3.99-4.47-6.69-6.63-1.37-1.05-4-.47-5.59-1.46-1.6-.97-2.81-2.71-4.59-3.56-1.75-.84-3.37-1.89-5.03-2.43-1.68-.52-3.59.39-5.18.18-3.18-.39-6.15-1.78-8.67-1.26-3.33.7-5.69,3.07-7.47,4.79Z" style="fill:#fabe00;"/><path d="M519,66.11c-1.06,1.69-.11,4.82,1.47,6.03,1.12.85,2.08,2.41,3.49,3.16,1.23.67,3.31-.19,4.7.4,1.38.61,2.78,1.22,4.3,1.71,3.11.94,6.35,1.78,9.73,2.23,3.29.44,6.61.54,9.96.18,2.92-.23,5.68.02,7.98-.55,3.03-.75,4.92-3.18,6.86-4.11,3.43-1.64,4.23-1.88,3.01-2.86-1.21-1-2.7-2.63-4.98-4.18-1.14-.77-2.29-1.66-3.66-2.49-1.4-.77-2.84-1.56-4.46-2.32-3.25-1.48-6.76-2.72-10.76-3.56-3.91-.87-7.32-1.55-10.63-1.21-3.32.37-6.12,1.14-8.59,2.31-3.41,1.61-6.96,2.92-8.43,5.26Z" style="fill:#fabe00;"/><path d="M475.44,55.78c-.43,1.5,1.26,2.84,2.61,3.63,2.23,1.3,4.65,3.03,7.68,3.9,2.64.76,5.54,1.37,8.53,1.65,2.82.27,5.75-.08,8.67-.34,2.87-.25,5.58-1.16,8.35-2.01,2.92-.88,5.82-1.13,8.06-2.28,2.91-1.49,5.1-3.36,6.88-4.74,3.16-2.48,3.79-4.94,2.4-5.77-1.37-.86-3.53-1.61-6.1-2.74-2.58-1.1-5.61-2.27-9.11-3.18-3.52-.87-7.27-2.53-11.37-2.78-3.71-.11-7.39-.3-10.4.49-3.6.94-6.24,3.7-8.69,5.59-3.52,2.66-6.64,5.49-7.52,8.56Z" style="fill:#fabe00;"/><path d="M430.97,49.05c-.43,2.21,1.59,4.2,3.68,5.04,1.32.53,2.59,1.44,4.12,1.82,2.8.7,5.92,1.34,9.15,1.42,3.23.09,6.54-.92,9.89-1.67,3.34-.71,7.28-.35,10.39-2,2.77-1.48,4.89-3.74,6.92-5.32,2.6-2.02,4.39-4.39,5.92-6.22,2.72-3.23,3.16-6.86,1.64-7.46-1.52-.6-3.69-1.94-6.43-2.68-2.98-.73-6.98.54-10.98.18-3.37-.31-6.86-.56-10.62-.07-2.02.24-3.92.22-5.7.73-1.78.55-3.32,1.34-4.83,2.1-3.03,1.52-5,3.72-6.93,5.79-2.66,2.88-5.64,5.34-6.22,8.34Z" style="fill:#fabe00;"/><path d="M232.93,80.05c.92,2.03,2.98,2.86,5.21,2.7,3.73-.27,8.25-.35,12.12-2.41,2.61-1.23,5.16-3.08,7.34-5.08,2.14-1.97,4.28-4.33,5.71-6.92,1.31-2.38,2.23-4.91,2.84-7.14.75-2.74-.32-5.48-.26-7.61,0-.1-.12-.19-.12-.28.07-3.38-2.24-5.94-5.56-5.3-.79.15-1.79-.29-2.7-.08-2.45.62-4.93,2.57-7.82,3.89-2.91,1.29-6.19,2.35-9.02,4.42-2.56,1.89-4.95,3.79-6.38,6.05-1.69,2.66-3.39,5.57-3.76,8.22-.48,3.41,1.2,6.86,2.41,9.53Z" style="fill:#fabe00;"/><path d="M585.5,118.52c.86-1.84,3.63-2.57,5.47-1.72.99.46,2.11.93,3.08,1.63,1.82,1.27,3.98,2.58,5.7,4.31,1.78,1.69,2.72,4.21,3.95,6.22,1.17,2.05,1.51,4.19,1.9,6.25.89,4.12,1.8,6.98,1.16,8.78-.62,1.78-5.01-.98-6.45-2.14-1.47-1.28-3.88-2.02-5.72-3.69-1.6-1.45-3.18-3.08-4.61-4.9-3.32-3.64-4.76-7.31-4.86-10.43-.05-1.52-.18-3.15.37-4.32Z" style="fill:#fabe00;"/><path d="M551.83,95.57c.77-1.3,2.83-1.82,4.31-1.53,1.59.31,3.65-.03,5.35.66,1.28.52,2.35,1.82,3.65,2.51.65.34,1.59.3,2.24.68.62.41.82,1.53,1.42,1.97,2.41,1.8,4.67,3.91,6.57,6.15,1.81,2.32,3.87,4.56,4.77,7.03.96,2.46.5,5.05.55,6.98.02,1.95.41,3.75.04,5.07-.74,2.63-5.38,2.79-9.22.71-.94-.54-2.18-.77-3.3-1.36-1.11-.61-2.36-1.15-3.51-1.89-1.16-.73-2.26-1.64-3.44-2.49-1.2-.83-1.83-2.42-2.95-3.43-1.1-.99-1.71-2.2-2.53-3.26-.83-1.05-1.62-1.9-2.2-2.97-1.19-2.12-1.89-4.06-2.15-6.19-.41-3.21-.94-6.39.4-8.64Z" style="fill:#fabe00;"/><path d="M512.62,79.86c.54-1.51,3.16-.86,4.77-.84,1.6.03,3.48-1.63,5.28-1.28,1.38.28,2.38,2.15,3.79,2.64,1.4.51,2.76,1,4.14,1.68,2.73,1.29,5.12,2.85,7.34,4.85,2.33,2.09,4.18,4.22,5.53,6.76,1.08,2.27,1.64,4.2,2,6.13.48,2.56,1.04,4.64.8,6.45-.4,3.16-2.07,4.96-3.37,4.68-1.31-.29-3.42.14-5.53-.56-1.06-.35-1.55-2.54-2.73-3.01-1.21-.42-2.38-.97-3.65-1.53-2.56-1.11-6.02-.93-8.63-2.62-2.54-1.7-4.75-3.97-6.27-6.1-1.54-2.1-2.88-4.63-3.5-6.9-.94-3.46-.96-7.61.03-10.37Z" style="fill:#fabe00;"/><path d="M473.72,70.46c.28-1.65.71-3.22,2.36-3.48,2.45-.4,5.37-.69,8.29-.23,2.62.4,5.7.48,8.31,1.53,2.55,1.03,4.54,3.5,6.72,5.13,2.24,1.66,4.95,3.14,6.45,5.4,1.5,2.28,2.71,4.66,3.4,6.72.88,2.65.79,5.37.81,7.45.07,3.63-1.83,4.89-3.14,4.77-1.3-.16-3.38,1.09-5.6.71-2.23-.35-4.95-.44-7.66-1.24-2.71-.8-5.39-2.62-8.19-4.22-2.65-1.36-5.64-2.49-7.43-4.46-2-2.19-1.89-5.74-2.96-8.14-1.54-3.58-1.89-6.82-1.36-9.93Z" style="fill:#fabe00;"/><path d="M431.64,65.79c-.01-1.79.54-2.32,2.25-2.82,1.45-.43,2.78-1.36,4.48-1.49,2.81-.22,5.96-.9,9.07-.27,3.11.64,6.72.96,9.6,2.42,2.88,1.5,4.7,4.81,6.82,7.22,1.9,2.15,2.6,4.63,3.62,6.78,1.29,2.72,3.92,4.68,4.31,6.82.14.8-.85,1.73-.78,2.41.24,2.41-1.53,4.08-3.95,4.09-1.01,0-2.16.14-3.43.06-2.46-.08-5.37.06-8.45-.59-2.59-.55-5.11-1.97-7.89-3.11-1.5-.63-3-1.08-4.29-1.9-1.3-.79-3.04-1.02-4.14-1.99-2.19-1.93-3.75-4.57-5.14-6.9-2.12-3.55-2.06-7.44-2.09-10.72Z" style="fill:#fabe00;"/><path d="M376.31,46.92c-.21,2.56,1.95,4.45,4.44,5.08,1.68.42,3.37,1.38,5.3,1.58,1.7.18,3.48.31,5.31.33,1.83.05,3.76.3,5.66.16,2.55-.23,5.05-1.35,7.63-1.84,2.55-.49,5.08-1.05,7.54-1.87,2.48-.83,4.46-2.58,6.72-3.83,2.94-1.51,5.48-2.8,7.58-4.41,2.79-2.15,5.9-3.24,7.41-5.1,2.65-3.27,2.22-7.73.34-8.25-1.88-.55-5.01.3-8.35-.37-1.67-.34-3.36-1.5-5.31-1.78-1.95-.22-4.1.62-6.26.51-2.22-.09-4.55-1.68-6.92-1.59-2.25.08-4.46,1.64-6.76,2.06-4.67.77-8.77,1.68-12.07,3.49-3.3,1.85-5.15,4.68-7.07,7.01-2.54,3.09-4.93,5.79-5.18,8.85Z" style="fill:#fabe00;"/><path d="M323.49,52.84c.29,3.12,2.79,5.37,5.91,5.66,2.41.22,4.98-.16,7.71-.38,2.5-.2,4.88-1.17,7.48-1.76,2.49-.57,5.44.26,7.88-.68,2.42-.93,4.37-2.91,6.62-4.22,2.25-1.31,4.46-2.61,6.4-4.32,2.57-2.22,5.78-3.62,7.47-5.84,2.2-2.88,3.29-6.12,4.35-8.39,1.87-4.06.44-6.97-1.52-7.26-1.97-.33-4.7-.56-8.1-.65-3.39-.05-7.26.52-11.52,1.08-2.18.31-4.34.7-6.62,1.22-2.18.5-4.4.69-6.6,1.44-2.54.96-4.68,2.08-6.71,3.32-2.32,1.43-4.29,2.8-5.94,4.51-1.88,1.95-2.82,4.11-3.85,6.27-1.75,3.58-3.27,6.78-2.97,9.99Z" style="fill:#fabe00;"/><path d="M273.66,67.57c.86,2.23,2.18,4.03,4.57,4.06,1.88.03,4.02.84,6.08.55,3.39-.47,6.64-2.7,10.12-4.03,3.48-1.32,7.72-1.84,10.82-4.11,3.12-2.23,5.74-5.46,8.05-8.6,2.06-2.83,3.37-5.84,4.58-8.44,1.54-3.3,3.42-6.22,3.95-8.85.96-4.66-1.65-8.72-3.62-8.71-1.97.01-4.86.26-8.21.65-2.46.36-5.02,2.01-7.96,2.71-2.57.61-5.53.42-8.24,1.44-2.53.96-5.42,1.61-7.87,3.06-2,1.14-3,3.54-4.57,4.87-1.55,1.37-2.6,2.92-3.75,4.4-2.31,2.96-5.65,5.29-6.46,8.36-1.18,4.55,1.14,9.02,2.53,12.64Z" style="fill:#fabe00;"/><path d="M378.11,64.46c-.27-1.7.67-3.86,2.27-4.5,1.73-.69,3.7-1.85,5.85-2.26,1.63-.3,3.52-.51,5.31-.6,1.79-.06,3.74.24,5.62.37,2.47.13,5.22.12,7.68.71,2.46.59,4.16,3.52,6.43,4.52,2.36,1.04,4.62,1.81,6.59,3.25,2.46,1.94,5.55,2.79,7.07,4.68,2.07,2.58,2.48,5.71,3.32,7.78,1.46,3.57.73,6.23-.81,6.5-1.56.26-3.83-.39-6.48-.21-1.33.09-2.67,2-4.19,2.01-1.53.08-3.19-.27-4.88-.31-3.37-.08-6.83-1.92-10.61-2.59-3.71-.72-7.08-1.45-9.96-3.07-2.88-1.58-5.65-3.22-7.66-5.39-3.13-3.38-5.01-7.43-5.55-10.88Z" style="fill:#fabe00;"/><path d="M329.23,72.82c-1.02-2.4.07-4.94,2.34-6.21,2.51-1.4,5.58-2.32,9.01-3.01,3.01-.6,6.2-1.81,9.52-1.73s6.19,1.83,9.31,2.64c3.12.81,5.99,1.82,8.73,3.47,2.92,1.79,5.89,2.87,7.84,4.77,2.54,2.48,3.57,5.52,4.84,7.77,2.24,3.88,2.68,7.18,1.21,7.62-1.47.39-3.71.64-6.29,1.2-2.57.6-5.59,1.31-8.94,1.64-3.36.33-6.96-.87-10.88-1.37-3.66-.3-6.74-1.3-9.84-2.66-3.39-1.48-7.15-2.06-9.69-4.15-3.45-2.9-5.76-6.67-7.16-9.98Z" style="fill:#fabe00;"/><path d="M281.67,86.41c-1.41-2.27-1.25-6.19.88-7.81,1.1-.83,2.38-1.89,3.75-2.6,2.86-1.46,6.94-.53,10.61-1.21,3.68-.67,7.33-1.43,11.26-1.12,3.94.36,8.04.6,11.72,2.27,3.3,1.48,6.52,2.8,8.88,4.66,2.99,2.36,4.55,5.65,6.25,7.78.44.56,1.4.7,1.77,1.22,1.93,2.73.18,6.04-2.93,7.25-.77.3-1.58.62-2.48.92-2.68,1.01-5.65,2.82-9.35,3.46-3.04.53-6.42,1.12-10,1.11-1.96-.03-3.93-.47-5.79-.8-1.85-.29-3.59-1-5.33-1.56-3.47-1.12-6.52-3.01-9.37-4.92-1.91-1.27-4.44-1.72-5.96-3.18-1.7-1.63-2.83-3.77-3.9-5.49Z" style="fill:#fabe00;"/><path d="M241.4,98.1c-1.53-1.92-1.63-5.31.25-6.9,2.35-1.97,6.23-2.4,9.93-3.53,2.84-.73,5.68-.73,8.83-.66,2.98.07,5.74.17,8.7,1.28,2.75,1.04,4.82,2.44,6.87,3.78,2.58,1.68,5.49,2.28,7.07,3.89.28.29.51.61.76.89,2.06,2.24,1.27,6.23-1.47,7.56-.35.17-.83.11-1.22.28-2.05.87-4.24,2.95-7.1,3.68-2.33.59-5.22-.51-8.05-.38-3.01.14-5.64-.85-8.39-1.52-2.91-.7-5.71-1.02-8.18-2.44-3.2-1.82-6.17-3.63-8-5.93Z" style="fill:#fabe00;"/><path d="M532.15,185.85c.28,1.23.01,4.7.59,5.58,2.08,3.19,3.67,5.58,5.51,7.27,2.16,1.99,4.93,2.78,7.71,4.81,1.89,1.38,5.36,5.5,9.16,6.05,2.09.3,4.16-3.51,2.88-6.59-1.36-3.28-4.21-5.18-5.8-7.53-1.79-2.66-3.46-4.84-6.03-6.81-2.24-1.72-4.65-3.4-7.86-4.96-1.03-.5-3.42-.59-4.56-.55-2.54.09-1.99,1-1.6,2.72Z" style="fill:#fabe00;"/><path d="M512.19,161.72c-2.22,1.05-2.01,3.56-.11,5.13.53.43,1.22.67,1.79,1.14,1.7,1.33,3.13,3.28,5.32,4.45,2.24,1.12,4.55,2.07,6.92,3.02,2.32,1,4.44,2.87,6.69,3.49,4.64,1.2,8.17-.17,10.45-.38,2.29-.22-.17-2.91-1.58-4.41-1.48-1.67-3.12-3.66-5.46-5.45-1.95-1.5-3.49-4.03-5.89-5.39-2.38-1.2-4.88-1.81-7.01-2.32-2.66-.64-5.25-.93-7.34-.63-1.45.21-2.74.87-3.8,1.37Z" style="fill:#fabe00;"/><path d="M472.3,145.55c-1.22,1.67-.62,3.75,1.12,4.87,1.96,1.27,4.06,3.01,6.71,4.06,2.32.92,5.03,1.13,7.66,1.8,2.51.63,5.12.74,7.72,1.07,2.64.34,5.15.18,7.7.14,3.18-.17,5.76.28,8.05-.16,2.28-.42,4-1.21,5.5-1.78,2.99-1.13,1.78-3.36-2.46-6.42-2.09-1.58-4.25-3.85-7.26-5.4-1.52-.75-3.56-.37-5.27-1.01-1.71-.63-2.85-3.29-4.72-3.78-1.83-.48-3.76-.78-5.45-.99-1.7-.19-3.44,1.25-4.98,1.34-3.09.2-6.14-.29-8.41.66-2.85,1.2-4.58,3.76-5.92,5.6Z" style="fill:#fabe00;"/><path d="M430.18,135.37c-.93,2.12-.55,5.79,1.56,6.77,1.11.51,2.94-.43,4.24-.03,1.3.41,2.52,1.41,3.96,1.71,1.43.33,2.89,1.36,4.43,1.55,3.13.33,6.49-1.28,9.77-1.46,3.21-.18,6.13-1.23,9.23-2.17,2.71-.74,5.29-.74,7.35-1.69,2.71-1.26,4.84-2.55,6.48-3.78,2.89-2.17-1.53-5.71-4.01-6.76-1.24-.53-1.89-2.95-3.36-3.48-1.49-.48-3.54.54-5.22.12-3.38-.82-6.93-3.26-10.89-3.33-3.88-.12-7.05,2.55-10.1,3.47-3.06.94-5.68,1.54-7.76,3.09-2.6,1.92-4.69,3.77-5.67,6.01Z" style="fill:#fabe00;"/><path d="M387.8,132.24c-.53,2.47-.42,5.66,2.01,6.36s5.26.56,8.12.75c2.55.17,5.4.98,8.14.7,2.61-.27,5.07-2.21,7.66-2.96,2.56-.74,5.1-1.55,7.45-2.82,2.57-1.35,4.31-3.42,6.19-4.9,2.44-1.93,5.16-2.93,6.55-4.56,2.46-2.92,2.13-5.61.65-6.15-1.48-.57-3.67-.91-6.34-1.51-2.67-.57-5.8-.79-9.3-1.02-3.51-.19-7.45-2.2-11.38-1.7-3.51.56-6.32,2.99-8.99,4.27-3.22,1.54-5.41,3.71-7.34,5.95-2.21,2.52-2.87,5.05-3.42,7.6Z" style="fill:#fabe00;"/><path d="M343.05,133.73c-.27,3.16,1.84,5.91,4.98,6.38.95.14,1.96-.16,2.99-.1,2.79.16,5.57-.86,8.65-1.37,3.07-.5,6.47.01,9.47-1.3,3-1.27,5.44-3.49,8.03-5.61,2.3-1.9,5.17-2.87,6.76-4.72,2.03-2.38,3.81-4.69,4.86-6.69,1.88-3.54.7-7.16-.86-7.47-1.56-.3-3.87-.63-6.62-.84-2.96-.15-6.54.23-10.38.6-3.26.32-6.47,1.6-9.94,2.74-1.86.59-3.37,1.37-4.93,2.18-1.56.84-3.09,1.34-4.36,2.33-2.54,1.98-3.96,4.31-5.34,6.61-1.54,2.59-3.08,4.77-3.29,7.26Z" style="fill:#fabe00;"/><path d="M163.18,204.38c.09.01.29-.34.38-.33,1.3.13,2.45-1.79,3.68-2.23,3.03-1.08,6.23-1.89,8.82-3.86,2.58-1.97,4.79-4.42,6.61-7.09,1.83-2.67,3.48-5.57,4.23-8.75.38-1.63,1.12-5.62,1.19-9.38.07-3.94-.87-7.63-3.17-8.36-.71-.22-1.56-.44-2.27-.23-2.74.82-5.91,1.58-8.72,3.05-2.68,1.4-4.27,4.55-6.6,6.5-2.38,1.99-5.85,3.04-7.43,5.57-1.61,2.58-2.51,5.85-2.84,8.94-.21,2.01,1.26,5.31,2.06,8.38.82,3.16,1.4,7.37,4.07,7.79Z" style="fill:#fabe00;"/><path d="M510.34,172.7c1.99.88,4.54,1.21,6.53,2.54,2.04,1.28,3.34,3.39,4.93,5.06,1.54,1.72,2.81,3.27,3.62,5.14,1.72,3.73,3.06,6.24,2.84,8.05-.21,1.79-5.2.66-6.8-.18-1.66-.95-4.35-.86-6.44-2.11-1.82-1.08-3.65-2.57-5.38-4.03-3.91-2.85-5.59-6.78-6.35-9.71-.46-1.77-1.67-6.6-.03-8.04,1.06-.93,3.32.79,7.09,3.28Z" style="fill:#fabe00;"/><path d="M467.11,156.77c.32-.65.95-2.06,1.67-2.1,1.86-.11,3.78,2.09,5.96,2.53,1.32.26,2.8-.16,4.18.26.69.21,1.03,1.28,1.72,1.53.67.27,1.84-.68,2.5-.36,2.66,1.27,4.56,3.71,6.82,5.48,2.2,1.87,3.96,3.64,5.34,5.81,1.43,2.15,3.91,3.58,4.36,5.4.44,1.84-.25,3.68-.33,4.99-.14,2.61-3.86,2.93-7.93,1.65-1-.34-2.69,1.12-3.87.76-1.18-.37-2.24-1.42-3.48-1.92-1.25-.48-2.51-1.07-3.8-1.66-1.31-.57-2.94-.76-4.21-1.51-1.25-.74-1.44-2.91-2.44-3.77-1-.84-2.92-.67-3.7-1.58-1.58-1.79-2.04-4.28-2.74-6.23-1.24-3.42-1.3-6.74-.06-9.26Z" style="fill:#fabe00;"/><path d="M426.33,151.96c-.08-2.64,2.51-5.99,5.14-6.26,1.04-.11,2.27-.09,3.42-.08,1.36.02,2.89.47,4.33.68,1.43.23,2.67,1.7,4.12,2.1,2.86.72,5.39,2.07,7.91,3.56,2.64,1.56,5.71,2.56,7.52,4.72,3.5,4.53,3.46,9.08,3.74,12.14.29,3.05.07,5.75-6.79,5.73-1.07-.14-2-2.66-3.21-2.89-1.23-.18-2.66.48-3.98.18-2.65-.59-5.66-.78-8.48-1.91-2.76-1.15-4.74-3.38-6.63-5.12-1.9-1.7-3.38-3.61-4.45-5.64-1.27-2.42-2.58-4.89-2.65-7.21Z" style="fill:#fabe00;"/><path d="M385.21,148.34c-.13-1.77,2.41-2.36,4.08-2.94,2.26-.78,4.57-1.31,7.43-1.39,2.54-.06,5.3-1.34,7.96-.79,2.59.53,4.87,2.19,7.25,3.33,2.42,1.16,4.27,2.84,6.13,4.67,1.89,1.88,3.04,3.71,4.13,5.53,1.4,2.35,2.83,4.15,3.3,6.11.83,3.42-4.26,5.51-6.44,5.55-2.18.07-4.64.39-7.37.13-2.73-.27-5.88.08-8.86-.93-2.79-.81-5.11-2.64-7.22-4.18-2.35-1.71-5.18-3.12-6.7-5.19-2.15-3.01-3.46-6.93-3.67-9.9Z" style="fill:#fabe00;"/><path d="M345.68,155.09c-1.66-3.49.88-8.87,4.56-10.07.39-.13,1.11.81,1.52.7,2.61-.71,5.49-1.75,8.56-1.71,3.07.04,6.25.7,9.29,1.56,3.03.9,5.6,2.82,8.11,4.72,2.35,1.77,4.7,3.49,6.4,5.87,1.69,2.38,2.37,5.25,3.37,8.01.39,1.06,1.94,4.37,1.85,4.57-.68,1.55-5.71,2.1-10.09,2.09-3.3,0-6.82-1.26-9.46-1.55-3.53-.39-7-1.1-10.24-2.59-3.24-1.49-7.1-2.62-9.53-5.26-1.78-1.92-3.35-4.27-4.33-6.33Z" style="fill:#fabe00;"/><path d="M289.98,144.23c.41,2.12,1.75,3.2,3.9,3.36,1.82.14,3.84,1.76,5.89,1.58,1.64-.14,3.11-2.2,4.85-2.51,1.74-.28,3.34-.96,5.11-1.44,2.35-.68,4.82-.89,7.15-1.82,2.31-.92,4.21-2.47,6.36-3.69,2.17-1.23,4.76-1.7,6.63-3.3,2.46-1.96,3.72-4.57,5.36-6.48,2.18-2.53,5.21-3.89,6.24-5.91,1.81-3.57.41-7.69-1.48-7.85-1.89-.18-4.71,1.09-8.01,1.06-1.65-.02-3.48-1.03-5.38-.95-1.88.14-3.71,1.9-5.78,2.18-2.11.31-4.35.15-6.57.66-2.11.48-4.24,1-6.33,1.81-4.24,1.57-8.08,3.03-10.81,5.34-2.73,2.34-4.19,5.3-5.51,7.85-1.88,3.63-2.19,7.01-1.6,10.09Z" style="fill:#fabe00;"/><path d="M242.8,163.48c2.49.12,5.44.1,8.39-.48,2.58-.51,5.1-1.92,7.79-2.94,2.53-.97,5.41-1.46,7.84-2.87,2.39-1.38,4.41-3.43,6.51-5.23,2.12-1.8,4.42-3.52,6.07-5.72,1.96-2.57,2.22-5.8,3.35-8.2,1.46-3.11,3.54-5.48,4.06-7.81.91-4.17-.85-6.98-2.76-6.9-1.93.05-4.54.75-7.77,1.28-3.21.56-6.75,1.82-10.66,3.11-1.99.68-4.16.93-6.21,1.83-1.95.87-4.33,1.02-6.24,2.12-2.2,1.36-4.41,2.65-6.06,4.19-1.89,1.77-3.7,3.69-4.9,5.6-1.36,2.18-.65,5.1-1.16,7.33-.65,2.7-1.23,5.06-.84,7.44.44,2.74,1.06,5.38,2.57,7.25Z" style="fill:#fabe00;"/><path d="M198.15,185.85c.77.27,2.15,0,3.03-.18,3.08-.59,5.77-2.92,8.76-4.21,2.93-1.26,5.33-3.21,7.94-5.07s4.87-3.8,6.95-6.21,4.51-4.51,5.82-7.43c1.15-2.6,3.43-5.06,4.22-7.94.79-2.89.59-6.12.53-9.01-.1-4.78-1.44-7.66-3.65-8.13-2.04-.43-4.77,2.38-8.38,3.53-2.53.8-5.03,1.54-7.51,2.79-2.41,1.21-4.88,2.24-7.13,3.8-2.25,1.57-5.09,2.44-7.04,4.3-2.01,1.91-3.27,4.51-4.85,6.66-1.52,2.07-3.22,4.17-4.14,6.59-.92,2.42-2.06,5.15-1.82,7.78.17,1.86,2.8,3.81,3.96,6.09,1.16,2.27,1.31,5.94,3.31,6.64Z" style="fill:#fabe00;"/><path d="M294.98,160.9c-.95-1.96-.57-4.8,1.29-5.93,1.36-.83,2.76-2.23,4.46-2.92,1.48-.58,3.53.17,5.2-.24,1.68-.38,3.45-.37,5.25-.58,2.38-.33,4.72.03,7.19.15s5.05-1.06,7.41-.52c2.43.56,5,1.15,7.15,2.15,2.74,1.39,4.54,3.73,6.38,5.25,2.5,2.06,4.72,3.76,5.95,5.57,2.13,3.12-3.57,6.74-6.04,7.38-1.23.32-2.5.78-3.94,1.07-1.43.35-2.93.54-4.53.8-3.2.53-6.55,2.01-10.27,2.05-3.66-.01-6.98-1.24-10.05-2.25-3.06-.98-5.84-2.23-8.2-3.92-3.3-2.37-5.89-5.18-7.27-8.05Z" style="fill:#fabe00;"/><path d="M248.33,173.03c1.38-1.94,3.99-2.77,6.63-4.33,2.19-1.29,4.45-2.42,7.21-3.28,2.53-.79,4.83-3.18,7.61-3.49,2.69-.3,5.54.52,8.27.79,2.72.27,5.11,1.63,7.68,2.56,3.15,1.17,5.91,2.02,8.16,3.48,2.91,1.89,5.12,3.79,6.79,5.68,2.94,3.27-.7,8.72-3.01,9.72-2.3,1.03-5.26,1.54-8.36,2.45-3.1.91-6.51,1.94-10.32,2.17-3.53.37-7.26,1.11-10.49.38-3.5-.79-7.03-2.25-9.87-3.76-2.49-1.37-4.19-3.99-5.99-5.74-2.16-2.1-3.56-4.41-4.32-6.63Z" style="fill:#fabe00;"/><path d="M206.32,194.38c1.03-2.15,2.05-4.45,4.44-6.36,2.39-1.9,5.59-3.12,8.91-4.42,3.33-1.3,6.97-1.5,10.74-1.91,3.8-.37,7.63-1.02,11.46-.1,3.44.81,6.68,1.49,9.31,2.83,3.32,1.69,5.46,4.4,7.51,6.11,3.69,3.1,2.79,6.45-1.51,8.88-2.33,1.44-5.01,2.87-8.37,4.14-2.75,1.05-5.38,3.27-8.76,3.9-1.86.33-3.75,1.18-5.58,1.2-1.81.06-3.72-.13-5.48-.35-3.51-.43-6.69-2.53-9.79-3.82-2.81-1.16-5.18-2.7-7.34-4.28-2.59-1.9-4.32-3.62-5.54-5.82Z" style="fill:#fabe00;"/><path d="M174.72,213.89c-.43-3.11,1.83-5.11,5.53-7.14,3.62-1.99,7.76-2.74,9.9-3.17,2.38-.48,4.72-1.47,7.34-1.25,2.53.22,4.83,1.49,7.23,2.15,2.64.73,4.84,1.74,6.87,2.75,3.29,1.65,6.61,2.44,6.61,3.87.02,3.94-7.71,7.17-8.6,7.62-2,1-3.57,3.33-5.73,3.94-2.16.61-4.56,1.12-6.79,1.33-2.53.23-5.21-.73-7.7-1.08-2.51-.35-5.36-.2-7.69-1.18-2.31-.97-4.31-2.97-6.31-4.59-.81-.65-.82-1.88-1.14-2.87-.04-.14.5-.26.48-.4Z" style="fill:#fabe00;"/><path d="M166.98,318.84c2.24,1.55,5.31.77,11.74.77,30.06,0,60.31.48,90.22.49,6.45,0,6.45.08,12.89.09,6.44,0,6.44,1.06,12.88,1.07s6.45-1.1,12.89-1.09c6.44,0,6.44,1.48,12.89,1.48,6.45,0,6.45-.83,12.89-.82,6.44,0,6.45-.73,12.89-.73,6.44,0,6.45,1.48,12.86,1.49,21.51.03,43.07-.75,64.45-.74,6.45,0,6.45.12,12.9.12,6.44,0,6.44.12,12.89.13,6.45,0,6.45.17,12.89.17,6.45,0,6.45-1.38,12.91-1.37,21.51.01,43,1.22,64.49,1.23,6.46,0,6.46-.72,12.92-.72,6.46,0,11.02,2.27,12.99.42,1.97-1.85-.12-6.3-.16-12.54-.03-6.24.4-6.25.37-12.49-.07-13.56-13.42-17.42-24.97-17.22-11.98.21-23.72-1.04-35.44-1.05-6.88,0-6.88,1.18-13.77,1.17-6.88,0-12.19,2.45-14.46.75s-.11-6.86-.09-12.94c.02-6.09.35-6.09.37-12.17.02-6.09-.32-6.09-.31-12.17,0-2.52-1.41-5.16-4.14-5.16-11.98,0-23.97,1.17-35.92,1.17-5.99,0-5.99-1.8-11.99-1.81-2.73,0-5.48,3.26-5.48,5.78-.02,6.08.73,6.08.71,12.16-.02,6.09-.55,6.08-.57,12.18-.02,8.29.55,13.18-9.7,12.03-10.26-1.16-20.62-.82-30.94-.48-18.19.6-36.24.19-54.27.18-6.81,0-8.18,4.54-13.25,0-4.53-4.05-.66-5.68-.64-11.75.02-6.09-.38-6.09-.36-12.17.02-6.09-.17-6.09-.15-12.17,0-2.52-1.31-5.36-4.07-5.36-5.98,0-5.98.93-11.98.92-11.99,0-23.92.59-35.91.59-2.73,0-3.91,1.31-3.91,3.84-.02,6.08-1.52,6.07-1.54,12.15-.02,6.09,1.11,6.09,1.09,12.18-.02,6.09,4.03,8.37-.53,12.4-5.15,4.55-7.07-.43-13.95-.43-6.87,0-6.87-.35-13.73-.36-9.17-.01-18.33.5-27.5.49-6.88,0-6.88.27-13.77.27s-3.92-.77-10,2.46c-6.7,3.55-8.23,8.06-8.23,14.3,0,6.25-1.65,21.76.59,23.32Z"/><path d="M214.13,100.84c-2.54,1.05-2.54.81-4.82,2.11-3.15,1.79-7.15,2.91-11.33,5.6-3.3,2.12-6.88,4.6-10.71,7.29-3.32,2.32-6.6,5.17-10.24,7.93-3.28,2.48-6.34,5.57-9.84,8.41-3.23,2.62-7.05,4.79-10.43,7.71-3.16,2.75-6.91,5.08-10.16,8.1-3.09,2.86-5.04,7.08-8.18,10.19-3,2.97-5.52,6.51-8.55,9.71s-6.59,5.53-9.51,8.82c-2.82,3.17-5.53,6.53-8.33,9.9-2.71,3.27-5.59,6.49-8.27,9.94-2.61,3.36-6.05,6.19-8.61,9.73-2.5,3.45-3.77,7.83-6.22,11.46-2.38,3.53-5.19,6.85-7.5,10.55-2.27,3.62-4.24,7.46-6.43,11.24-2.14,3.69-4.4,7.37-6.46,11.22-2.01,3.77-4.59,7.31-6.52,11.23-1.88,3.83-3.38,7.92-5.16,11.9-1.75,3.9-2.56,8.24-4.21,12.28-1.61,3.96-4.86,7.34-6.36,11.43-1.47,4.01-1.72,8.51-3.08,12.65s-2.93,8.09-4.15,12.27c-1.19,4.1-1.54,8.47-2.61,12.69-1.05,4.14-3.32,8.04-4.25,12.29s-1.52,8.47-2.3,12.76-.41,8.64-1.06,12.95c-.63,4.23-2.12,8.38-2.62,12.72-.49,4.25-1.11,8.54-1.48,12.88-.36,4.26.89,8.66.66,13.02s-1,8.53-1.1,12.89c-.1,4.27-.61,8.58-.58,12.94.03,4.28,1.01,8.56,1.17,12.93.15,4.27-1.65,8.68-1.37,13.04.27,4.27.56,8.62.96,12.97.39,4.26,2.12,8.44,2.62,12.79.54,4.26,2.21,8.35,2.95,12.63.73,4.23,1.21,8.5,2.15,12.74.92,4.2.3,8.8,1.42,13,1.1,4.16,4.3,7.73,5.59,11.87,1.27,4.11.31,8.98,1.77,13.07,1.44,4.05,3.3,8.02,4.91,12.05,1.6,4,3.06,8.12,4.83,12.08,1.76,3.93,10,19.22,12.06,23.03,2.06,3.79,4.22,7.55,6.44,11.28,2.2,3.71,5.01,7.07,7.36,10.7,2.34,3.62,11.27,18.53,13.9,21.97,2.62,3.43,6.37,6,9.13,9.33s5.02,7.09,7.91,10.31c2.89,3.21,7.07,5.2,10.09,8.3,3.02,3.09,20.08,3.72,17.33.56-2.82-3.24-14.09-16.03-16.58-19.4-2.55-3.45-3.84-7.76-6.2-11.23-2.41-3.55-4.93-6.96-7.15-10.53-2.27-3.64-4.66-7.16-6.73-10.81-2.12-3.73-4.35-7.36-6.27-11.09-1.97-3.81-9.26-19.19-10.88-23.06-1.66-3.97-2.54-8.19-4.01-12.12-1.5-4.03-2.96-8.01-4.27-11.98-1.35-4.09-1.95-8.33-3.11-12.34-1.19-4.14-3.32-7.96-4.33-12.01-1.04-4.19-.67-8.62-1.53-12.69-.89-4.24-2.1-8.3-2.8-12.39-.74-4.29-2.13-8.37-2.69-12.47-.58-4.32-.45-8.6-.85-12.7-.43-4.38-.5-8.61-.75-12.69-.27-4.43-1.35-8.62-1.45-12.66-.11-4.5-.28-8.76-.23-12.73.06-4.63-.02-8.91.19-12.72.27-4.99,1.65-9.21,2.01-12.62.02-1.17.2-1.11.28-2.28.42-.06-.29.19-.25-.16.81-6.46-.21-4.79,1.11-13,.58-3.62,2.01-7.81,3.05-12.69.82-3.88,2.84-7.84,4.01-12.4,1.02-3.96,1.94-8.17,3.27-12.56,1.2-3.97.49-8.78,1.98-13.06,1.37-3.96,3.73-7.76,5.37-11.94,1.54-3.93,4.52-7.38,6.31-11.47,1.71-3.88,2.99-8.04,4.95-12.04,1.87-3.82,3.27-7.98,5.37-11.89,2.03-3.75,4.24-7.49,6.51-11.29,2.18-3.67,3.66-7.9,6.08-11.59,2.34-3.58,5.57-6.67,8.14-10.26s4.4-7.52,7.11-10.99c2.64-3.38,5.96-6.31,8.82-9.67,2.78-3.26,6.66-5.61,9.66-8.84,2.92-3.14,5.92-6.23,9.05-9.33,2.23-2.2,3.96-4.67,6-6.99.76-.86,1.51-4.95-8.42,2.79-2.76,2.15-6.25,4.48-10.13,7.19-3.1,2.16-5.52,5.83-9.05,8.57-3.08,2.38-7.48,3.51-10.79,6.34-3.01,2.57-6.4,5.04-9.55,7.98-2.92,2.73-4.84,6.7-7.81,9.76-2.8,2.88-5.45,6.03-8.27,9.2s-4.9,6.5-7.55,9.8c-2.54,3.16-6.13,5.58-8.62,9-2.39,3.28-4.77,7.04-7.08,10.57,1.23-4.13,3.14-8.32,4.48-12.35,1.37-4.09,3.17-7.97,4.65-11.95,1.5-4.04,2.23-8.34,3.84-12.27,1.64-3.99,3.73-7.75,5.46-11.63,1.77-3.94,2.69-8.24,4.55-12.06s3.88-7.69,5.86-11.45,4.9-7.13,6.99-10.82c2.13-3.76,3.6-7.86,5.81-11.48,2.25-3.7,4.03-7.65,6.34-11.2,2.36-3.63,5.43-6.9,7.83-10.38,2.47-3.56,4.37-7.32,6.87-10.72s5.21-6.91,7.8-10.23c2.68-3.43,6.97-5.46,9.66-8.7,2.79-3.36,5.05-7.01,7.82-10.16,2.89-3.29,6.03-6.19,8.88-9.25,3-3.21,5.34-6.89,8.26-9.84,3.11-3.14,6.23-6.08,9.23-8.93,3.24-3.07,5.56-6.9,8.62-9.61,3.38-2.99,7.38-4.93,10.5-7.49,3.57-2.93,7.39-4.98,10.53-7.34,3.87-2.89,7.34-5.78,3.31-4.11Z"/><path d="M617.04,427.26c-5.98-2.83-6.06-2.66-12.05-5.49-5.98-2.83-5.25-4.39-11.23-7.22-5.99-2.84-6.39-2-12.39-4.83-2.55-1.21-3.93-2.09-5.17-2.84,0,0-10.44-17.84-10.96-18.72-6.47-11.05-10.94-22.37-16.26-33.9-2.78-6.02-3.51-5.69-6.07-11.79-1.16-2.72-3.8-4.87-7.57-4.87-6.53,0-19.59-1.11-26.12-1.11-21.76,0-43.63,1.57-65.31,1.57-6.53,0-6.53.7-13.06.7s-6.53-1.6-13.06-1.6-32.66,1.57-39.19,1.57-6.52-.08-13.05-.08-19.59-1.67-26.13-1.67c-21.84,0-43.68.31-65.51.91-17.59.49-34.67-1.26-52.12-1.26-6.55,0-6.55.31-13.1.31s-6.55,1.73-13.1,1.73c-3.77,0-6.66.97-7.78,3.69-2.54,6.1-2.32,6.19-4.86,12.28-2.54,6.08-2.57,6.08-5.1,12.15-4.7,11.26-11.02,21.89-16.84,32.59-.81,1.5-1.63,3-2.71,4.32-4.73,5.77-14.34,7.91-20.98,11.05-5.99,2.83-5.52,3.83-11.51,6.67q-5.99,2.84-11.98,5.68c-5.88,2.79-3.49,8.62,3.42,8.62,6.34,0,6.34,1.5,12.68,1.5s6.34-.32,12.69-.32,6.35.61,12.71.61,6.35-1.84,12.71-1.84l-1.15.62c0,6.43,1.82,6.43,1.82,12.85,0,12.88-1.63,25.73-1.63,38.63,0,6.43,1.99,6.43,1.99,12.87s-1.36,6.44-1.36,12.87.79,6.44.79,12.87-.77,6.45-.77,12.89.22,6.45.22,12.89c0,4.43-.48,8.89-.04,13.2.44,4.4,2.06,8.62,2.93,12.88.88,4.33,2.03,8.54,3.33,12.69,1.32,4.21,2.62,8.4,4.34,12.39,1.75,4.05,3.76,7.94,5.89,11.74,2.16,3.84,3.5,8.25,6.03,11.81,24.75,34.78,62.88,46.73,103.42,46.73,6.62,0,6.62-.2,13.24-.2s33.12,1.59,39.75,1.59,6.63-.32,13.26-.32,46.4.05,53.04.05c40.53,0,79.38-1.39,110.88-29.73,6.35-5.71,13.58-10.97,18.82-18.34,2.53-3.55,4.21-7.73,6.37-11.57,2.13-3.8,3.6-7.93,5.35-11.98,1.72-3.99,4.3-7.72,5.62-11.93,1.3-4.15,1.39-8.66,2.27-12.99.87-4.25.82-8.61,1.26-13.02.43-4.31.68-45.18.68-51.62s.08-6.44.08-12.85c0-17.17.91-34.33.91-51.52,0-6.45-.02-6.45-.02-12.89l.15.33c6.02,0,6.02-1.06,12.04-1.06s6.02,0,12.04,0,6.03-.38,12.06-.38,6.03.66,12.06.66c6.94,0,9.22-5.8,3.34-8.59ZM394.63,428.8c5.86-16.66,24.41-14.98,33.9-15.49,8.04-.03,18.23,6.46,18.95,9.38,2.34,9.59-6.45,3.61-4.51,17.37.02,3.31,4.37,11.5-5.74,22.95-6.02,6.6-15.78,9.47-24.67,9.47-6.95-1.35-11.47-1.39-17.92-6.88-.64-.8-1.17-1.7-1.59-2.67-5.15-14.54-1.97-26.88,1.59-34.12ZM285.71,422.76c3.61-6.61,8.24-10.1,22.84-13.08,1.12-.23,25.96,0,33.28,30.21.22.91.08,1.88.13,2.82.07,1.13.15,2.25.25,3.38.02,6.38,1.59,15.79-.94,21.43-2.2,4.91-28.04,12.35-49.36,1.82-6.73-3.32-6.96-16.47-4.44-26.41,2.52-9.94-4.16-12.65-1.75-20.16ZM339.67,565.91c-.35,4.72-16.17,13.99-40.96,12.49-4.73-.29-9.4-.65-13.18-3.89-.66-.81-1.21-1.73-1.66-2.72-1.16-5.16-.68-10.12-.41-15.32.29-5.6,2.37-33.03,21.95-35.63,4.91-.65,9.84,1.15,14.75,1.86,4.2.6,9.77.53,13.39,2.94,4.42,2.94,5.83,9.24,6.52,14.15,1.23,8.72.25,17.45-.4,26.13ZM446.22,573.23c-.97,3.29-3.41,6.14-7.03,6.15-3.32.24-6.64.45-9.98.57-1.11.04-2.23.08-3.35.09-2.51.09-5.09.26-7.7.39-1.31.06-2.62.12-3.92.13-7.43-1.81-24.11-30.02-24.81-40.87.04-1.17.14-2.34.26-3.51,0-1.25,0-2.49.07-3.69.07-1.2.2-2.36.41-3.45.21-1.09.51-2.1.92-3.02.93-1.03,1.92-1.9,2.97-2.64,9.5-4.46,20.64-1.7,30.66-1.71,1.28.16,11.41,2.39,13.99,7.91,10,21.44,6.58,22.49,8.07,33.03.21,3.5.45,7.23-.55,10.61ZM455.85,503.87c-2.9,0-4.34-.08-5.79-.16-1.4-.08-2.79-.15-5.59-.15s-4.09.14-5.5.29c-1.45.15-2.94.31-5.87.31s-4.31-.05-5.75-.11c-1.4-.05-2.81-.11-5.62-.11s-4.29-.02-5.72-.04c-1.42-.02-2.83-.04-5.66-.04-2.67,0-3.97.25-5.34.52-1.48.29-3.01.58-6.03.58s-4.47-.19-5.92-.38c-1.4-.18-2.73-.35-5.46-.35s-4.07.15-5.48.32c-1.45.17-2.95.34-5.89.34-1.2,0-2.91,1.69-2.91,2.87,0,2.82.05,4.22.09,5.63.05,1.44.09,2.88.09,5.75,0,3.09-.46,4.73-.86,6.18-.38,1.34-.73,2.61-.73,5.21s.34,3.88.7,5.23c.4,1.51.82,3.07.82,6.16,0,2.83.02,4.24.05,5.66.03,1.43.05,2.86.05,5.72,0,3.01-.28,4.54-.55,6.02-.25,1.38-.49,2.69-.49,5.37s.18,4.06.37,5.46c.2,1.46.4,2.97.4,5.94s-.25,4.52-.49,5.99c-.22,1.39-.44,2.71-.44,5.41,0,4.63-3.31,8.25-7.54,8.25s-7.51-3.62-7.51-8.25c0-2.69-.23-3.99-.48-5.37-.26-1.47-.54-3-.54-6,0-2.81-.04-4.22-.09-5.63-.05-1.44-.09-2.87-.09-5.75,0-3.01.29-4.54.58-6.02.26-1.38.51-2.68.51-5.34s-.28-3.94-.57-5.31c-.32-1.49-.65-3.03-.65-6.07,0-2.87.04-4.31.09-5.74.04-1.41.08-2.82.08-5.63s.12-4.38.23-5.84c.11-1.39.22-2.77.22-5.54s-.12-4.11-.24-5.53c-.13-1.44-.26-2.92-.26-5.84,0-1.1-1.49-2.73-2.61-2.73-3.09,0-4.73-.46-6.18-.86-1.34-.38-2.61-.73-5.21-.73s-3.88.34-5.23.7c-1.51.4-3.07.82-6.16.82-2.83,0-4.24.02-5.66.05-1.43.02-2.86.05-5.72.05-3.01,0-4.54-.28-6.02-.55-1.38-.25-2.69-.49-5.37-.49s-4.05.18-5.45.37c-1.46.2-2.97.4-5.93.4s-4.52-.25-5.99-.48c-1.39-.22-2.71-.44-5.41-.44-2.94,0-4.43-.14-5.87-.28-1.42-.13-2.77-.26-5.53-.26-4.53,0-7.34-2.68-7.34-7s2.81-8.74,7.34-8.74c2.95,0,4.45.18,5.9.34,1.41.17,2.74.32,5.48.32s4.31.05,5.75.09c1.41.05,2.81.09,5.63.09s4.44.17,5.88.33c1.41.16,2.74.31,5.48.31s3.93-.29,5.29-.6c1.49-.34,3.04-.68,6.08-.68s4.41.13,5.84.26c1.42.12,2.77.24,5.53.24,2.91,0,4.36.11,5.82.21,1.39.1,2.78.2,5.56.2s4.17-.1,5.55-.21c1.46-.11,2.91-.21,5.82-.21,1.96,0,4.41-1.78,4.41-3.27,0-2.67-.26-3.97-.53-5.34-.29-1.49-.6-3.02-.6-6.04,0-2.79-.08-4.19-.17-5.59-.09-1.45-.17-2.9-.17-5.8,0-3.05.35-4.59.69-6.09.31-1.36.6-2.65.6-5.29s-.3-3.92-.62-5.28c-.35-1.5-.72-3.05-.72-6.1s.33-4.58.64-6.06c.29-1.37.56-2.67.56-5.32s-.12-4.12-.24-5.54c-.13-1.44-.26-2.93-.26-5.86,0-2.71-.21-4.03-.43-5.42-.23-1.47-.47-2.99-.47-5.98,0-4.57,4.55-7.39,8.76-7.39,4.66,0,8.31,3.25,8.31,7.39,0,2.98-.23,4.49-.45,5.96-.21,1.39-.41,2.71-.41,5.42,0,2.89-.08,4.34-.16,5.79-.08,1.4-.15,2.8-.15,5.59s.14,4.08.29,5.5c.15,1.44.31,2.93.31,5.87s-.05,4.32-.11,5.76c-.05,1.4-.1,2.81-.1,5.62s-.02,4.28-.04,5.71c-.02,1.42-.04,2.83-.04,5.66,0,2.68.25,3.98.52,5.35.29,1.48.58,3.01.58,6.03s-.19,4.46-.38,5.92c-.18,1.4-.35,2.73-.35,5.45,0,1.3,2.09,2.91,3.53,2.91,2.93,0,4.41.13,5.85.26,1.42.12,2.77.24,5.54.24s4.24-.04,5.65-.07c1.43-.04,2.87-.08,5.74-.08s4.29.02,5.72.04c1.42.02,2.83.04,5.66.04s4.18-.09,5.57-.19c1.45-.1,2.91-.2,5.81-.2s4.56.31,6.05.6c1.37.27,2.67.53,5.34.53,2.88,0,4.32.04,5.76.09,1.41.04,2.82.08,5.65.08,2.65,0,3.94-.29,5.31-.59,1.5-.33,3.04-.68,6.09-.68,4.47,0,8.69,4.11,8.69,8.45,0,4.6-4.51,7.44-8.69,7.44Z"/></svg>