<?xml version="1.0" encoding="UTF-8"?><svg id="b" xmlns="http://www.w3.org/2000/svg" viewBox="0 0 1350 400"><path d="M500.17,315.92c-11.36-14.13-29.78-38.39-44.58-57.89-.05-.07-.14-.2-.2-.27-1.19-1.54-3-2.39-4.87-2.39-1.55,0-3.14.58-4.45,1.89-1.15,1.15-1.69,2.79-1.69,4.42v26.96c0,10.07.63,13.67,2.82,16.07,1.65,1.81,4.12,2.69,8.39,3.4,3.81.63,6.6,3.95,6.61,7.81h0s-59.73,0-59.73,0h0c0-3.87,2.84-7.14,6.66-7.75,4.32-.69,6.58-1.59,8.2-3.35,2.26-2.46,2.94-6.24,2.94-16.17v-78.71c0-10.04-.68-13.86-2.92-16.35-1.64-1.83-4.14-2.76-8.33-3.4-3.78-.57-6.56-3.85-6.56-7.67h0s59.6,0,59.6,0h0c0,3.85-2.77,7.16-6.56,7.83-4.01.71-6.35,1.64-7.99,3.39-2.35,2.52-3.14,6.6-3.14,16.2v24.47c0,1.16.25,2.33.89,3.29,1.3,1.95,3.29,2.89,5.25,2.89,1.36,0,2.71-.45,3.82-1.33,1.72-1.37,3.56-2.98,5.61-4.92,13.65-13.28,24.43-25.62,31.08-33.64.19-.23.35-.43.49-.61.66-.85,1.15-1.83,1.29-2.89.44-3.54-1.9-6.42-5.01-6.98-.48-.09-1.02-.17-1.64-.25h0c-2.59-.28-4.56-2.46-4.56-5.07v-2.36h52.41,0c0,3.9-2.82,7.25-6.68,7.88-10.71,1.72-17.12,4.5-27.93,15.97-2.59,2.66-5.77,5.88-9.26,9.42-5.38,5.45-11.34,11.49-17.06,17.4-2.1,2.17-2.31,5.56-.47,7.96,15.39,20.09,31.49,40.43,43.07,54.4,6.72,8.09,9.73,10.77,16.19,12.32,3.72.89,6.34,4.24,6.34,8.06h0s-38.04,0-38.04,0Z"/><path d="M619.98,249.86c-1.82-4.22-5.24-5.31-9.88-6.38-4.89-1.13-9.95-2.3-12.17-9.95-1.24-4.26-7.34-10.84-12.92-10.84-19.74,0-41.74,22.59-41.74,55,0,24.72,16.2,40.69,41.28,40.69,12.23,0,40.68-4.22,40.68-43.3,0-8.54-1.81-17.26-5.24-25.22ZM591.21,305.37c-13.83,0-22.76-10.25-22.76-26.11,0-16.66,9.84-35.3,23.02-35.3,3.13,0,6.43,4.15,7.13,6.95,1.13,4.54,3.71,5.58,6.71,6.39,2.64.71,4.45,1.38,5.45,4.09,1.89,5.11,2.89,10.7,2.89,16.18,0,25.08-15.69,27.79-22.44,27.79Z"/><path d="M731.98,315.91h-45.39s0,0,0,0c0-3.52,2.38-6.62,5.79-7.46.45-.11.85-.23,1.21-.36,1.83-.67,3.24-2.16,3.8-4.03.37-1.23.7-3.18.7-9.1v-36.63c0-14-4.81-20.8-14.71-20.8-4.88,0-9.82,1.84-15.54,5.81-1.65,1.14-2.63,3.04-2.63,5.04v46.58c0,4.98.26,7.23.58,8.58.41,1.74,2.02,3.86,3.67,4.54.15.06.31.12.48.18,3.31,1.14,5.6,4.15,5.6,7.64h0s-46,0-46,0h0c0-3.61,2.57-6.69,6.11-7.42,1.59-.33,2.58-.69,3.43-1.16,1-.56,1.81-1.44,2.29-2.48.81-1.76,1.08-4.07,1.08-10.41v-43.15c0-5.04-.11-7.95-.72-9.84-.51-1.61-1.67-2.93-3.19-3.66-.94-.45-2.49-1.01-6.81-1.7h0c0-3.45,2.51-6.35,5.91-6.91,7.31-1.22,15.06-3.14,23.8-5.88,1.85-.58,3.74.78,3.75,2.73h0c0,1.15.24,2.32.88,3.28,1.29,1.96,3.28,2.92,5.27,2.92,1.19,0,2.37-.34,3.4-1.03,1.24-.82,2.53-1.65,3.9-2.49,5.12-3.18,10.23-6.01,17.02-6.01,8.34,0,15.17,3.57,19.76,10.31.93,1.37,2.38,2.31,4,2.6.36.06.72.1,1.08.1,1.27,0,2.53-.4,3.58-1.15,3.12-2.23,6.12-4.27,9.23-6.39,5.65-3.6,11.2-5.47,16.35-5.47,17.03,0,26.79,11.86,26.79,32.54v39.74c0,5.17.25,7.31.64,8.7.5,1.8,1.77,3.34,3.48,4.08.5.22,1.08.41,1.81.6,3.43.88,5.8,4.03,5.8,7.57h0s-45.49,0-45.49,0h0c0-3.56,2.38-6.71,5.82-7.63.32-.09.6-.17.8-.26,1.58-.65,2.82-1.93,3.42-3.53.51-1.35.98-3.55.98-10.35v-35.08c0-17.69-8.44-21.41-15.52-21.41-4.77,0-9.54,1.81-15,5.7-1.76,1.26-2.73,3.38-2.57,5.54.14,1.99.21,3.68.21,5.32v40.88c0,6.9.41,9.09,1.55,10.81.41.62.96,1.15,1.6,1.53.38.23,1.12.47,2.01.71,3.51.92,5.95,4.11,5.98,7.74h0Z"/><path d="M834.52,318.38c-24.39,0-42.09-18.73-42.09-44.53,0-13.43,5.62-27.45,14.67-36.58,8.94-9.29,20.4-14.58,31.51-14.58,8.84,0,17.13,3.45,23.34,9.71,6.21,6.26,9.73,14.7,9.67,23.17-.11,5.44-1.29,6.84-3.17,7.31-3.13.75-22.97,2.06-47.11,3.1-1.74.07-3.37.88-4.47,2.22-1.11,1.34-1.6,3.09-1.34,4.81,2.56,17.36,13.38,28.15,28.25,28.15,6.57,0,12.87-2.01,18.81-6,2.74-1.84,6.44-1.15,8.29,1.59h0c-11.45,15.96-26.28,21.64-36.34,21.64ZM834.23,230.89c-7.38,0-13.8,6.84-16.77,17.86-.5,1.86-.1,3.85,1.09,5.37,1.17,1.5,2.96,2.37,4.85,2.37h.1c5.22-.08,12.13-.21,19.35-.45,1.66-.05,3.23-.78,4.35-2.02,1.12-1.23,1.69-2.87,1.58-4.53-.4-6-2.54-11.39-5.89-14.81-3.08-3.14-6.4-3.8-8.65-3.8Z"/><path d="M998.41,315.92c-11.36-14.13-29.82-38.45-44.66-57.99v.02c-.04-.07-.08-.13-.12-.18-1.19-1.54-3-2.39-4.87-2.39-1.06,0-2.13.27-3.12.85-1.94,1.12-3.02,3.3-3.02,5.54v26.89c0,10.07.63,13.67,2.82,16.07,1.65,1.81,4.12,2.69,8.39,3.4,3.81.63,6.6,3.95,6.61,7.81h0s-59.73,0-59.73,0h0c0-3.87,2.84-7.14,6.66-7.75,4.32-.69,6.58-1.59,8.2-3.35,2.25-2.46,2.94-6.24,2.94-16.17v-78.71c0-10.04-.68-13.86-2.92-16.35-1.64-1.83-4.14-2.76-8.33-3.4-3.78-.57-6.56-3.85-6.56-7.67h0s59.6,0,59.6,0h0c0,3.85-2.77,7.16-6.56,7.83-4.01.71-6.35,1.63-7.98,3.39-2.35,2.52-3.14,6.61-3.14,16.2v24.39c0,1.46.44,2.92,1.39,4.03,1.28,1.5,3.03,2.23,4.76,2.23,1.36,0,2.71-.45,3.82-1.33,1.72-1.37,3.56-2.98,5.61-4.92,13.65-13.28,24.43-25.62,31.08-33.64.17-.2.3-.37.43-.54.84-1.08,1.39-2.39,1.4-3.76.03-3.17-2.19-5.67-5.07-6.19-.48-.09-1.02-.17-1.64-.25h0c-2.59-.28-4.56-2.46-4.56-5.07v-2.36h52.41,0c0,3.9-2.82,7.25-6.68,7.88-10.71,1.72-17.12,4.5-27.93,15.97-2.59,2.66-5.77,5.88-9.26,9.42-5.37,5.44-11.33,11.49-17.05,17.4-2.11,2.18-2.31,5.57-.47,7.98,15.38,20.09,31.48,40.42,43.06,54.39,6.72,8.09,9.73,10.77,16.19,12.32,3.72.89,6.34,4.24,6.34,8.06h0s-38.04,0-38.04,0Z"/><path d="M1109.43,315.84c-4.51,2.48-10.11,2.59-14.44-.19-.66-.42-1.26-.89-1.78-1.39-1.02-.94-1.81-1.83-2.53-2.85-1.19-1.69-3.09-2.6-5.02-2.6-1.16,0-2.34.33-3.37,1.01-6.29,4.14-13.31,8.55-17.08,8.55-12.94,0-26.91-9.96-26.91-26.05,0-12.43,7.77-17.09,16.16-20.26,2.32-.84,4.77-1.71,7.26-2.58,7.75-2.73,17.33-6.11,22.37-8.8,1.98-1.06,3.2-3.14,3.2-5.4v-4c0-16.4-9.14-18.85-14.59-18.85-4.42,0-7.18,2.35-8.71,4.32-2.17,2.85-3.23,6.62-4.68,11.84l-.46,1.64c-1.15,4.23-3.63,6.18-7.82,6.18-4.86,0-11.03-4.75-11.03-10.1,0-3.09,1.91-5.56,7.04-9.14,4.94-3.36,13-11.89,31.69-14.5,7.75,0,14.4,1.95,19.77,5.81,7.58,5.66,11,13.31,11,24.74v36.94c0,3.88.55,6.91,1.63,8.99,1.06,2.05,3.17,3.32,5.45,3.32.16,0,.32,0,.48-.02,1.75-.14,3.7-.74,5.94-1.83h0c1.27,3.79-.36,7.95-3.86,9.87l-9.7,5.33ZM1081.14,270.47c-.93,0-1.86.21-2.73.64l-.55.27c-1.69.84-3.3,1.64-4.74,2.37-6.52,3.19-10.92,6.86-10.92,14.31,0,11.42,8.16,15.67,13.31,15.67,1.78,0,5.3-.32,8.86-2.49,1.81-1.1,2.9-3.1,2.9-5.22v-19.37c0-1.04-.2-2.1-.72-3-1.23-2.11-3.32-3.19-5.42-3.19Z"/><path d="M1130.73,315.92h0c0-3.61,2.54-6.68,6.06-7.46,1.74-.39,2.81-.84,3.71-1.47.74-.52,1.35-1.19,1.8-1.97,1-1.74,1.45-3.92,1.45-12.26v-40.81c0-6.04-.23-8.78-.88-10.61-.59-1.65-1.91-2.97-3.53-3.63-1.35-.55-3.26-.95-7.06-1.49h0c0-3.48,2.52-6.44,5.95-6.99,7.36-1.19,14.63-2.78,21.49-4.71,3.47-.98,6.92,1.6,6.92,5.21v63.03c0,7.6.37,10.4,1.66,12.45.43.68.98,1.27,1.63,1.73.98.7,2.16,1.18,4.2,1.59,3.49.7,5.95,3.83,5.96,7.39h0s-49.36,0-49.36,0ZM1153.81,207.24c-7.15,0-13.41-6.2-13.41-13.28s6.11-13.42,13.62-13.42,13.27,5.9,13.27,13.42-6.04,13.28-13.47,13.28Z"/><path d="M1221.48,366.96c-24.74,0-37.84-12.5-37.99-24.85,0-4.69,1.79-8.24,5.8-11.43,2.28-1.83,4.95-3.89,7.75-5.98,1.59-1.18,2.51-3.06,2.47-5.04-.04-1.98-1.02-3.82-2.65-4.94-2.84-1.96-5.2-4.37-7.03-7.16h0c-3.09-4.52-1.7-10.8,3.1-13.43,2.5-1.37,4.93-2.91,7.14-4.55,1.59-1.17,2.51-3.03,2.49-5.01-.02-1.97-.99-3.81-2.6-4.95-7.93-5.61-12.3-14.11-12.3-23.93,0-21.57,20-33.21,38.81-33.21,7.41,0,13.99,1.48,20.74,4.66.82.39,1.72.59,2.62.59h.1c7.47-.12,18.14-.1,23.9-2.34,3.79-1.48,3.79,6.23-2.44,12.01-.44.41-1.5,1.3-3.25,1.14-.11-.01-.22-.01-.33-.01-1.84,0-3.59.83-4.77,2.26-1.24,1.52-1.68,3.55-1.18,5.45.71,2.7,1.07,5.66,1.07,8.8,0,15.75-11.75,31.64-37.99,31.64-2.52,0-5-.17-7.38-.49-.28-.04-.56-.06-.84-.06-2.28,0-4.4,1.27-5.46,3.33-.16.3-.28.57-.37.79-.91,2.17-.5,4.68,1.06,6.44,1.23,1.39,4.21,3.72,10.42,3.72,3.48,0,7.6-.02,11.69-.04h1.46c3.54-.02,7.01-.03,9.97-.03,7.16,0,30.5,1.8,30.5,25.03s-29.32,41.59-54.54,41.59ZM1228.23,319.45c-9.93,0-15.12,1.13-18.53,4.05-4.53,3.73-7.18,8.57-7.18,13.23,0,11.44,11.42,19.43,27.77,19.43s27.38-7.9,27.38-20.12c0-6.98-3.92-12.38-10.5-14.45-5.56-1.78-11.37-2.13-18.94-2.13ZM1225.11,229.84c-6.92,0-14.38,7.29-14.38,23.29s6.49,26.17,16.16,26.17c8.87-.15,14.1-9.01,14.1-23.69,0-15.41-6.38-25.77-15.89-25.77Z"/><g id="c"><path d="M1303.13,315.92l.51-12.91c.3-7.57.68-17.37,1.02-26.3.28-7.3-.45-14.64-2.17-21.82-1.71-7.16-4.4-14.16-8.01-20.83-1.01-1.86-2.02-3.61-2.99-5.28-1.6-2.76-3.04-5.24-4.23-7.76-2.31-4.87-3.29-9.01-3.29-13.84,0-21.68,14.43-31.55,27.83-31.55h.36c13.4,0,27.82,9.87,27.83,31.55,0,4.83-.98,8.97-3.29,13.84-1.19,2.53-2.64,5.01-4.16,7.64-1.05,1.8-2.05,3.54-3.06,5.41-3.6,6.66-6.3,13.67-8.01,20.83-1.71,7.18-2.44,14.52-2.17,21.82.34,8.93.72,18.73,1.02,26.3l.51,12.91h-17.72Z"/></g><path d="M344.4,78.38c.27,1.9,1.37,3.07,1.81,4.34.44,1.3.41,2.84,1.55,4.39.97,1.32,2.41,3.05,3.99,4.12,2.08,1.42,4.65,1.86,5.53,1.4.75-.4.56-2.41-.12-4.19-.64-1.68-1.32-3.5-1.58-3.97-.89-1.61-2.38-2.98-3.67-4.32-1.3-1.35-2.83-2.52-4.5-3.33-1.01-.48-3.32-.67-2.99,1.57Z" style="fill:#fabe00;"/><path d="M336.74,66.73c.81.95,1.76,2,2.87,2.92,1.15.89,2.65,1.31,3.9,2.12,1.21.83,2.13,2.26,3.35,2.87,2.53,1.2,4.69,1.06,6.03,1.18,1.35.13,2.37-.41,2.05-1.01-.31-.6-1.87-.85-2.48-1.87-.64-1.13-.56-3.08-1.68-4.38-.94-1.09-2.02-2.32-3.23-3.37-1.23-.96-2.87-1.12-4.04-1.65-1.45-.66-2.8-.95-4.05-1-2.23-.43-3.28-.24-3.66.47-.61,1.13.43,3.12.93,3.72Z" style="fill:#fabe00;"/><path d="M316.05,48.87c-.81.78-1.25,2.38-.45,3.18.97.97,2.93,1.01,4.35,1.92,1.23.79,2.34,1.88,3.79,2.56,1.37.65,2.73,1.4,4.2,1.88s2.99.78,4.48,1.04c1.86.25,3.37.8,4.76.79,1.37,0,2.53-.33,3.47-.5,1.88-.32,2.09-2.73.04-4.97-1-1.14-2.27-2.55-3.81-3.78-.78-.6-2.28-.27-3.19-.83-.91-.55-1.6-1.54-2.62-2.03-1-.48-1.92-1.08-2.87-1.39-.96-.3-2.05.22-2.95.1-1.81-.22-3.51-1.02-4.94-.72-1.9.4-3.24,1.75-4.26,2.73Z" style="fill:#fabe00;"/><path d="M292.34,38.24c-.6.96-.06,2.75.84,3.44.64.49,1.19,1.37,1.99,1.8.7.38,1.89-.11,2.68.23.79.35,1.59.69,2.45.97,1.77.53,3.62,1.02,5.54,1.27,1.88.25,3.76.31,5.67.1,1.67-.13,3.23.01,4.55-.32,1.73-.43,2.8-1.81,3.91-2.34,1.95-.94,2.41-1.07,1.71-1.63-.69-.57-1.54-1.5-2.84-2.38-.65-.44-1.3-.95-2.09-1.42-.8-.44-1.62-.89-2.54-1.32-1.85-.84-3.85-1.55-6.13-2.03-2.23-.5-4.17-.88-6.06-.69-1.89.21-3.49.65-4.89,1.32-1.94.92-3.96,1.66-4.8,3Z" style="fill:#fabe00;"/><path d="M267.52,32.36c-.25.86.72,1.62,1.49,2.07,1.27.74,2.65,1.73,4.38,2.22,1.5.43,3.16.78,4.86.94,1.61.16,3.27-.05,4.94-.19,1.63-.14,3.18-.66,4.76-1.15,1.67-.5,3.31-.64,4.59-1.3,1.66-.85,2.91-1.91,3.92-2.7,1.8-1.42,2.16-2.81,1.37-3.29-.78-.49-2.01-.92-3.48-1.56-1.47-.63-3.19-1.29-5.19-1.81-2-.5-4.14-1.44-6.48-1.58-2.11-.06-4.21-.17-5.93.28-2.05.54-3.55,2.11-4.95,3.19-2.01,1.52-3.78,3.13-4.29,4.88Z" style="fill:#fabe00;"/><path d="M242.18,28.53c-.24,1.26.9,2.39,2.09,2.87.75.3,1.47.82,2.35,1.04,1.59.4,3.37.76,5.21.81,1.84.05,3.73-.52,5.64-.95,1.9-.41,4.15-.2,5.92-1.14,1.58-.85,2.79-2.13,3.94-3.03,1.48-1.15,2.5-2.5,3.37-3.54,1.55-1.84,1.8-3.91.94-4.25-.87-.34-2.1-1.1-3.67-1.53-1.7-.42-3.98.31-6.26.1-1.92-.17-3.91-.32-6.05-.04-1.15.14-2.24.12-3.25.42-1.01.31-1.89.76-2.75,1.2-1.72.86-2.85,2.12-3.95,3.3-1.51,1.64-3.22,3.04-3.54,4.75Z" style="fill:#fabe00;"/><path d="M129.34,46.19c.52,1.16,1.7,1.63,2.97,1.54,2.13-.15,4.7-.2,6.91-1.37,1.49-.7,2.94-1.75,4.18-2.9s2.44-2.47,3.25-3.94c.75-1.36,1.27-2.8,1.62-4.07.43-1.56-.18-3.12-.15-4.33,0-.05-.07-.11-.07-.16.04-1.93-1.27-3.39-3.17-3.02-.45.09-1.02-.17-1.54-.05-1.4.35-2.81,1.47-4.46,2.22-1.66.73-3.52,1.34-5.14,2.52-1.46,1.08-2.82,2.16-3.63,3.45-.96,1.52-1.93,3.18-2.14,4.69-.27,1.94.68,3.91,1.37,5.43Z" style="fill:#fabe00;"/><path d="M330.24,68.1c.49-1.05,2.07-1.47,3.12-.98.57.26,1.2.53,1.75.93,1.04.73,2.26,1.47,3.25,2.46,1.01.96,1.55,2.4,2.25,3.54.67,1.17.86,2.39,1.08,3.56.51,2.35,1.03,3.98.66,5-.35,1.01-2.85-.56-3.67-1.22-.84-.73-2.21-1.15-3.26-2.1-.91-.83-1.81-1.75-2.62-2.79-1.89-2.08-2.71-4.16-2.77-5.94-.03-.87-.1-1.79.21-2.46Z" style="fill:#fabe00;"/><path d="M311.05,55.03c.44-.74,1.61-1.04,2.46-.87.9.17,2.08-.02,3.05.38.73.29,1.34,1.04,2.08,1.43.37.2.91.17,1.27.39.35.23.47.87.81,1.12,1.37,1.03,2.66,2.23,3.74,3.5,1.03,1.32,2.2,2.6,2.72,4,.55,1.4.29,2.88.31,3.98.01,1.11.23,2.14.02,2.89-.42,1.5-3.06,1.59-5.25.4-.54-.31-1.24-.44-1.88-.78-.63-.35-1.35-.65-2-1.08-.66-.42-1.29-.94-1.96-1.42-.68-.47-1.04-1.38-1.68-1.95-.63-.56-.98-1.25-1.44-1.86-.47-.6-.92-1.08-1.26-1.69-.68-1.21-1.07-2.32-1.23-3.52-.24-1.83-.53-3.64.23-4.92Z" style="fill:#fabe00;"/><path d="M288.71,46.08c.31-.86,1.8-.49,2.72-.48s1.98-.93,3.01-.73c.79.16,1.35,1.22,2.16,1.5.8.29,1.57.57,2.36.96,1.56.73,2.92,1.62,4.18,2.76,1.33,1.19,2.38,2.4,3.15,3.85.62,1.29.93,2.39,1.14,3.49.27,1.46.59,2.65.46,3.68-.23,1.8-1.18,2.82-1.92,2.67-.74-.16-1.95.08-3.15-.32-.6-.2-.88-1.45-1.55-1.71-.69-.24-1.36-.55-2.08-.87-1.46-.63-3.43-.53-4.92-1.49-1.45-.97-2.71-2.26-3.57-3.48-.88-1.19-1.64-2.64-2-3.93-.54-1.97-.55-4.34.02-5.91Z" style="fill:#fabe00;"/><path d="M266.54,40.72c.16-.94.4-1.83,1.35-1.99,1.4-.23,3.06-.39,4.73-.13,1.49.23,3.25.27,4.73.87,1.45.59,2.58,1.99,3.83,2.92,1.28.95,2.82,1.79,3.67,3.08.85,1.3,1.55,2.66,1.94,3.83.5,1.51.45,3.06.46,4.24.04,2.07-1.04,2.79-1.79,2.72-.74-.09-1.93.62-3.19.4-1.27-.2-2.82-.25-4.36-.7-1.55-.46-3.07-1.49-4.66-2.4-1.51-.77-3.21-1.42-4.24-2.54-1.14-1.25-1.08-3.27-1.69-4.64-.88-2.04-1.08-3.89-.77-5.66Z" style="fill:#fabe00;"/><path d="M242.57,38.06c0-1.02.31-1.32,1.28-1.61.83-.24,1.58-.77,2.55-.85,1.6-.12,3.4-.51,5.17-.16,1.77.36,3.83.55,5.47,1.38,1.64.85,2.68,2.74,3.88,4.12,1.09,1.23,1.48,2.64,2.06,3.86.73,1.55,2.23,2.67,2.46,3.88.08.45-.48.99-.45,1.38.14,1.37-.87,2.32-2.25,2.33-.58,0-1.23.08-1.96.03-1.4-.04-3.06.04-4.81-.33-1.47-.31-2.91-1.12-4.49-1.77-.85-.36-1.71-.61-2.44-1.09-.74-.45-1.73-.58-2.36-1.13-1.25-1.1-2.14-2.61-2.93-3.93-1.21-2.02-1.17-4.24-1.19-6.11Z" style="fill:#fabe00;"/><path d="M211.04,27.31c-.12,1.46,1.11,2.54,2.53,2.89.96.24,1.92.79,3.02.9.97.1,1.98.18,3.03.19,1.04.03,2.14.17,3.23.09,1.45-.13,2.88-.77,4.35-1.05s2.89-.6,4.29-1.07c1.41-.47,2.54-1.47,3.83-2.18,1.68-.86,3.12-1.59,4.32-2.52,1.59-1.22,3.36-1.85,4.22-2.9,1.51-1.86,1.27-4.4.2-4.7-1.07-.31-2.85.17-4.76-.21-.95-.19-1.92-.85-3.03-1.02-1.11-.12-2.34.35-3.57.29-1.26-.05-2.59-.96-3.94-.91-1.28.05-2.54.93-3.85,1.17-2.66.44-5,.95-6.88,1.99-1.88,1.05-2.93,2.66-4.03,4-1.45,1.76-2.81,3.3-2.95,5.04Z" style="fill:#fabe00;"/><path d="M180.94,30.68c.17,1.78,1.59,3.06,3.37,3.22,1.37.13,2.84-.09,4.4-.22,1.42-.12,2.78-.67,4.26-1,1.42-.32,3.1.15,4.49-.39,1.38-.53,2.49-1.66,3.77-2.4,1.28-.75,2.54-1.49,3.65-2.46,1.47-1.27,3.29-2.06,4.26-3.33,1.25-1.64,1.88-3.49,2.48-4.78,1.07-2.31.25-3.97-.87-4.14-1.12-.19-2.68-.32-4.62-.37-1.93-.03-4.14.3-6.57.61-1.24.18-2.47.4-3.77.7-1.24.29-2.51.39-3.76.82-1.45.55-2.67,1.18-3.82,1.89-1.32.81-2.45,1.6-3.39,2.57-1.07,1.11-1.61,2.34-2.19,3.57-.99,2.04-1.86,3.86-1.69,5.69Z" style="fill:#fabe00;"/><path d="M152.55,39.07c.49,1.27,1.24,2.3,2.6,2.31,1.07.01,2.29.48,3.46.31,1.93-.27,3.78-1.54,5.76-2.29,1.98-.75,4.4-1.05,6.16-2.34,1.78-1.27,3.27-3.11,4.59-4.9,1.18-1.61,1.92-3.33,2.61-4.81.88-1.88,1.95-3.54,2.25-5.04.55-2.66-.94-4.97-2.06-4.96-1.12,0-2.77.15-4.68.37-1.4.2-2.86,1.14-4.53,1.54-1.47.35-3.15.24-4.69.82-1.44.55-3.09.92-4.48,1.74-1.14.65-1.71,2.01-2.61,2.77-.89.78-1.48,1.66-2.14,2.51-1.31,1.69-3.22,3.01-3.68,4.76-.67,2.59.65,5.14,1.44,7.2Z" style="fill:#fabe00;"/><path d="M212.06,37.31c-.15-.97.38-2.2,1.29-2.56.99-.39,2.11-1.05,3.33-1.29.93-.17,2.01-.29,3.03-.34,1.02-.04,2.13.14,3.2.21,1.41.07,2.97.07,4.37.41,1.4.33,2.37,2,3.66,2.58s2.63,1.03,3.75,1.85c1.4,1.1,3.16,1.59,4.03,2.67,1.18,1.47,1.41,3.25,1.89,4.43.83,2.04.42,3.55-.46,3.7-.89.15-2.18-.22-3.69-.12-.76.05-1.52,1.14-2.39,1.15-.87.04-1.82-.15-2.78-.18-1.92-.05-3.89-1.09-6.04-1.48-2.11-.41-4.03-.83-5.67-1.75-1.64-.9-3.22-1.84-4.36-3.07-1.78-1.93-2.85-4.23-3.16-6.2Z" style="fill:#fabe00;"/><path d="M184.22,42.07c-.58-1.37.04-2.82,1.34-3.54,1.43-.8,3.18-1.32,5.13-1.71,1.71-.34,3.54-1.03,5.42-.99,1.81.04,3.53,1.04,5.3,1.5,1.78.46,3.41,1.03,4.97,1.98,1.66,1.02,3.36,1.63,4.47,2.72,1.45,1.42,2.03,3.15,2.76,4.42,1.28,2.21,1.53,4.09.69,4.34-.84.22-2.11.36-3.58.69-1.47.34-3.18.75-5.09.94-1.91.19-3.97-.49-6.2-.78-2.08-.17-3.84-.74-5.61-1.51-1.93-.84-4.07-1.17-5.52-2.36-1.96-1.65-3.28-3.8-4.08-5.68Z" style="fill:#fabe00;"/><path d="M157.11,49.81c-.81-1.29-.71-3.53.5-4.45.62-.47,1.36-1.08,2.14-1.48,1.63-.83,3.95-.3,6.05-.69,2.1-.38,4.18-.82,6.42-.64,2.25.2,4.58.34,6.68,1.29,1.88.84,3.71,1.59,5.06,2.66,1.7,1.35,2.59,3.22,3.56,4.43.25.32.8.4,1.01.69,1.1,1.55.1,3.44-1.67,4.13-.44.17-.9.36-1.42.53-1.53.57-3.22,1.6-5.33,1.97-1.73.3-3.66.64-5.7.63-1.12-.01-2.24-.27-3.3-.45-1.05-.16-2.05-.57-3.04-.89-1.98-.64-3.71-1.72-5.34-2.8-1.09-.72-2.53-.98-3.4-1.81-.97-.93-1.61-2.15-2.22-3.13Z" style="fill:#fabe00;"/><path d="M134.17,56.47c-.87-1.1-.93-3.03.14-3.93,1.34-1.12,3.55-1.37,5.66-2.01,1.62-.42,3.24-.41,5.03-.37,1.7.04,3.27.09,4.96.73,1.56.59,2.75,1.39,3.91,2.15,1.47.95,3.13,1.3,4.03,2.22.16.16.29.35.43.51,1.18,1.28.72,3.55-.84,4.31-.2.1-.47.06-.69.16-1.17.5-2.42,1.68-4.05,2.1-1.33.34-2.97-.29-4.59-.22-1.72.08-3.21-.49-4.78-.86-1.66-.4-3.26-.58-4.66-1.39-1.82-1.04-3.51-2.07-4.56-3.38Z" style="fill:#fabe00;"/><path d="M299.84,106.47c.16.7,0,2.68.34,3.18,1.18,1.82,2.09,3.18,3.14,4.14,1.23,1.13,2.81,1.58,4.39,2.74,1.08.79,3.05,3.13,5.22,3.45,1.19.17,2.37-2,1.64-3.75-.78-1.87-2.4-2.95-3.3-4.29-1.02-1.52-1.97-2.76-3.44-3.88-1.28-.98-2.65-1.94-4.48-2.83-.59-.29-1.95-.34-2.6-.31-1.45.05-1.13.57-.91,1.55Z" style="fill:#fabe00;"/><path d="M288.46,92.72c-1.27.6-1.14,2.03-.06,2.92.3.25.69.38,1.02.65.97.76,1.78,1.87,3.03,2.53,1.27.64,2.59,1.18,3.94,1.72,1.32.57,2.53,1.63,3.81,1.99,2.64.68,4.66-.09,5.95-.22,1.3-.12-.1-1.66-.9-2.51-.84-.95-1.78-2.08-3.11-3.11-1.11-.86-1.99-2.3-3.35-3.07-1.36-.68-2.78-1.03-3.99-1.32-1.52-.37-2.99-.53-4.18-.36-.82.12-1.56.5-2.16.78Z" style="fill:#fabe00;"/><path d="M265.73,83.51c-.69.95-.35,2.14.64,2.78,1.12.73,2.32,1.72,3.83,2.31,1.32.52,2.87.65,4.36,1.02,1.43.36,2.92.42,4.4.61,1.5.19,2.94.1,4.39.08,1.81-.1,3.28.16,4.59-.09,1.3-.24,2.28-.69,3.13-1.02,1.7-.64,1.01-1.91-1.4-3.66-1.19-.9-2.42-2.19-4.14-3.08-.87-.43-2.03-.21-3-.58-.98-.36-1.63-1.87-2.69-2.15-1.04-.27-2.14-.45-3.1-.57-.97-.11-1.96.71-2.84.76-1.76.11-3.5-.16-4.79.38-1.63.69-2.61,2.14-3.37,3.19Z" style="fill:#fabe00;"/><path d="M241.73,77.7c-.53,1.21-.31,3.3.89,3.86.63.29,1.67-.25,2.42-.02.74.23,1.43.8,2.25.98.82.19,1.65.78,2.53.88,1.78.19,3.7-.73,5.57-.83,1.83-.1,3.5-.7,5.26-1.24,1.54-.42,3.02-.42,4.19-.97,1.54-.72,2.76-1.45,3.69-2.15,1.65-1.23-.87-3.25-2.28-3.85-.71-.3-1.07-1.68-1.91-1.98-.85-.27-2.02.31-2.98.07-1.93-.47-3.95-1.86-6.2-1.89-2.21-.07-4.02,1.46-5.76,1.98-1.74.54-3.24.88-4.42,1.76-1.48,1.1-2.67,2.15-3.23,3.42Z" style="fill:#fabe00;"/><path d="M217.58,75.93c-.3,1.41-.24,3.22,1.14,3.62,1.33.38,3,.32,4.62.43,1.45.1,3.08.56,4.64.4,1.49-.16,2.89-1.26,4.36-1.69,1.46-.42,2.9-.89,4.25-1.6,1.46-.77,2.46-1.95,3.52-2.79,1.39-1.1,2.94-1.67,3.73-2.6,1.4-1.66,1.22-3.2.37-3.5-.84-.32-2.09-.52-3.61-.86-1.52-.33-3.3-.45-5.3-.58-2-.11-4.25-1.26-6.48-.97-2,.32-3.6,1.7-5.12,2.43-1.83.88-3.08,2.12-4.18,3.39-1.26,1.43-1.63,2.88-1.95,4.33Z" style="fill:#fabe00;"/><path d="M192.09,76.77c-.15,1.8,1.05,3.37,2.84,3.63.54.08,1.12-.09,1.7-.06,1.59.09,3.18-.49,4.93-.78,1.75-.28,3.69,0,5.4-.74,1.71-.73,3.1-1.99,4.57-3.19,1.31-1.08,2.95-1.63,3.85-2.69,1.16-1.36,2.17-2.67,2.77-3.81,1.07-2.01.4-4.08-.49-4.25-.89-.17-2.21-.36-3.77-.48-1.69-.09-3.73.13-5.92.34-1.86.18-3.69.91-5.66,1.56-1.06.34-1.92.78-2.81,1.24-.89.48-1.76.76-2.48,1.33-1.45,1.13-2.26,2.46-3.04,3.77-.88,1.48-1.75,2.72-1.88,4.14Z" style="fill:#fabe00;"/><path d="M89.6,117.03c.05,0,.17-.19.22-.19.74.07,1.39-1.02,2.1-1.27,1.73-.62,3.55-1.08,5.02-2.2,1.47-1.12,2.73-2.52,3.77-4.04,1.04-1.52,1.98-3.17,2.41-4.99.22-.93.64-3.2.68-5.35.04-2.24-.5-4.35-1.81-4.76-.4-.13-.89-.25-1.3-.13-1.56.47-3.37.9-4.97,1.74-1.53.8-2.43,2.6-3.76,3.7-1.36,1.13-3.33,1.73-4.24,3.17-.92,1.47-1.43,3.33-1.62,5.1-.12,1.15.72,3.02,1.17,4.77.47,1.8.8,4.2,2.32,4.44Z" style="fill:#fabe00;"/><path d="M287.41,98.98c1.13.5,2.59.69,3.72,1.45,1.16.73,1.9,1.93,2.81,2.88.88.98,1.6,1.86,2.06,2.93.98,2.13,1.74,3.56,1.62,4.59-.12,1.02-2.96.37-3.88-.1-.95-.54-2.48-.49-3.67-1.2-1.04-.62-2.08-1.46-3.07-2.3-2.23-1.62-3.19-3.86-3.62-5.53-.26-1.01-.95-3.76-.02-4.58.6-.53,1.89.45,4.04,1.87Z" style="fill:#fabe00;"/><path d="M262.78,89.9c.18-.37.54-1.17.95-1.2,1.06-.07,2.16,1.19,3.4,1.44.75.15,1.6-.09,2.38.15.39.12.59.73.98.87.38.16,1.05-.39,1.43-.21,1.52.72,2.6,2.12,3.88,3.12,1.26,1.06,2.26,2.08,3.04,3.31.81,1.23,2.23,2.04,2.49,3.08.25,1.05-.14,2.1-.19,2.84-.08,1.49-2.2,1.67-4.52.94-.57-.19-1.53.64-2.21.44-.67-.21-1.28-.81-1.98-1.09-.71-.28-1.43-.61-2.17-.95-.75-.32-1.68-.44-2.4-.86-.71-.42-.82-1.66-1.39-2.15-.57-.48-1.66-.38-2.11-.9-.9-1.02-1.16-2.44-1.56-3.55-.7-1.95-.74-3.84-.03-5.28Z" style="fill:#fabe00;"/><path d="M239.54,87.16c-.05-1.51,1.43-3.41,2.93-3.57.6-.06,1.3-.05,1.95-.05.78,0,1.65.27,2.47.38.82.13,1.52.97,2.35,1.19,1.63.41,3.07,1.18,4.51,2.03,1.5.89,3.25,1.46,4.28,2.69,2,2.58,1.97,5.17,2.13,6.92.16,1.74.04,3.28-3.87,3.26-.61-.08-1.14-1.52-1.83-1.65-.7-.1-1.51.27-2.27.1-1.51-.34-3.22-.44-4.83-1.09-1.57-.65-2.7-1.93-3.77-2.92-1.08-.97-1.93-2.06-2.53-3.21-.72-1.38-1.47-2.79-1.51-4.11Z" style="fill:#fabe00;"/><path d="M216.11,85.1c-.07-1.01,1.37-1.34,2.32-1.68,1.28-.45,2.6-.75,4.23-.79,1.45-.04,3.02-.76,4.54-.45,1.47.3,2.78,1.25,4.13,1.9,1.38.66,2.43,1.62,3.5,2.66,1.08,1.07,1.73,2.11,2.35,3.15.8,1.34,1.61,2.36,1.88,3.48.48,1.95-2.43,3.14-3.67,3.16-1.24.04-2.65.22-4.2.07-1.56-.15-3.35.05-5.05-.53-1.59-.46-2.91-1.5-4.12-2.38-1.34-.97-2.95-1.78-3.82-2.96-1.22-1.71-1.97-3.95-2.09-5.64Z" style="fill:#fabe00;"/><path d="M193.59,88.94c-.94-1.99.5-5.05,2.6-5.74.22-.07.63.46.86.4,1.49-.4,3.13-.99,4.88-.97,1.75.03,3.56.4,5.29.89,1.73.51,3.19,1.61,4.62,2.69,1.34,1.01,2.68,1.99,3.64,3.34s1.35,2.99,1.92,4.56c.22.61,1.11,2.49,1.06,2.6-.39.88-3.25,1.2-5.75,1.19-1.88,0-3.89-.72-5.39-.89-2.01-.22-3.99-.63-5.83-1.48-1.85-.85-4.04-1.49-5.43-3-1.01-1.09-1.91-2.43-2.46-3.61Z" style="fill:#fabe00;"/><path d="M161.85,82.76c.23,1.21,1,1.82,2.22,1.91,1.04.08,2.19,1,3.35.9.94-.08,1.77-1.26,2.76-1.43.99-.16,1.9-.55,2.91-.82,1.34-.39,2.75-.51,4.07-1.03s2.4-1.41,3.62-2.1c1.24-.7,2.71-.97,3.78-1.88,1.4-1.12,2.12-2.61,3.05-3.69,1.24-1.44,2.97-2.21,3.56-3.37,1.03-2.03.23-4.38-.84-4.47-1.08-.1-2.68.62-4.56.6-.94,0-1.98-.59-3.07-.54-1.07.08-2.12,1.08-3.29,1.24-1.2.18-2.48.09-3.74.37-1.2.28-2.41.57-3.61,1.03-2.42.89-4.6,1.73-6.16,3.04-1.55,1.33-2.39,3.02-3.14,4.48-1.07,2.07-1.25,3.99-.91,5.75Z" style="fill:#fabe00;"/><path d="M134.97,93.73c1.42.07,3.1.06,4.78-.27,1.47-.29,2.91-1.09,4.44-1.68,1.44-.55,3.08-.83,4.47-1.63,1.36-.79,2.51-1.96,3.71-2.98,1.21-1.03,2.52-2.01,3.46-3.26,1.12-1.46,1.26-3.3,1.91-4.67.83-1.77,2.02-3.12,2.31-4.45.52-2.38-.48-3.98-1.58-3.93-1.1.03-2.59.43-4.43.73-1.83.32-3.85,1.04-6.07,1.77-1.13.39-2.37.53-3.54,1.04s-2.46.58-3.56,1.21c-1.25.78-2.51,1.51-3.45,2.39-1.08,1.01-2.11,2.1-2.79,3.19-.78,1.24-.37,2.91-.66,4.17-.37,1.54-.7,2.88-.48,4.24.25,1.56.6,3.07,1.46,4.13Z" style="fill:#fabe00;"/><path d="M109.53,106.47c.44.15,1.22,0,1.73-.1,1.76-.33,3.29-1.67,4.99-2.4,1.67-.72,3.03-1.83,4.52-2.89,1.49-1.07,2.78-2.17,3.96-3.54s2.57-2.57,3.32-4.23c.66-1.48,1.95-2.88,2.4-4.53.45-1.65.34-3.49.3-5.13-.06-2.72-.82-4.36-2.08-4.63-1.16-.25-2.72,1.36-4.77,2.01-1.44.46-2.86.88-4.28,1.59-1.37.69-2.78,1.27-4.06,2.16-1.28.89-2.9,1.39-4.01,2.45s-1.86,2.57-2.76,3.79c-.87,1.18-1.84,2.38-2.36,3.75-.52,1.38-1.17,2.93-1.04,4.44.1,1.06,1.6,2.17,2.26,3.47s.75,3.39,1.89,3.78Z" style="fill:#fabe00;"/><path d="M164.7,92.25c-.54-1.12-.32-2.73.74-3.38.78-.47,1.57-1.27,2.54-1.66.84-.33,2.01.1,2.97-.14.96-.22,1.97-.21,2.99-.33,1.35-.19,2.69.02,4.09.09s2.88-.6,4.22-.3,2.85.65,4.07,1.22c1.56.79,2.59,2.13,3.64,2.99,1.42,1.17,2.69,2.14,3.39,3.17,1.21,1.78-2.03,3.84-3.44,4.2-.7.18-1.43.45-2.24.61-.82.2-1.67.31-2.58.45-1.83.3-3.73,1.15-5.85,1.17-2.08,0-3.98-.71-5.73-1.28-1.74-.56-3.33-1.27-4.67-2.23-1.88-1.35-3.36-2.95-4.14-4.58Z" style="fill:#fabe00;"/><path d="M138.12,99.17c.78-1.1,2.27-1.58,3.78-2.47,1.25-.74,2.54-1.38,4.11-1.87,1.44-.45,2.75-1.81,4.34-1.99s3.16.3,4.71.45,2.91.93,4.38,1.46c1.79.66,3.37,1.15,4.65,1.98,1.66,1.07,2.92,2.16,3.87,3.24,1.67,1.86-.4,4.97-1.72,5.54-1.31.59-3,.87-4.76,1.39-1.77.52-3.71,1.1-5.88,1.24-2.01.21-4.14.63-5.98.22-1.99-.45-4.01-1.28-5.62-2.14-1.42-.78-2.39-2.27-3.41-3.27-1.23-1.2-2.03-2.51-2.46-3.78Z" style="fill:#fabe00;"/><path d="M114.19,111.33c.59-1.23,1.17-2.54,2.53-3.62,1.36-1.08,3.18-1.78,5.08-2.52,1.9-.74,3.97-.86,6.12-1.09,2.17-.21,4.35-.58,6.53-.06,1.96.46,3.81.85,5.3,1.61,1.89.96,3.11,2.51,4.28,3.48,2.1,1.77,1.59,3.67-.86,5.06-1.33.82-2.85,1.63-4.77,2.36-1.57.6-3.06,1.86-4.99,2.22-1.06.19-2.14.67-3.18.69-1.03.03-2.12-.08-3.12-.2-2-.25-3.81-1.44-5.58-2.17-1.6-.66-2.95-1.54-4.18-2.44-1.47-1.08-2.46-2.06-3.16-3.32Z" style="fill:#fabe00;"/><path d="M96.18,122.45c-.25-1.77,1.04-2.91,3.15-4.07,2.06-1.13,4.42-1.56,5.64-1.81,1.36-.27,2.69-.84,4.18-.71,1.44.12,2.75.85,4.12,1.23,1.51.42,2.76.99,3.91,1.57,1.88.94,3.76,1.39,3.77,2.21.01,2.24-4.39,4.09-4.9,4.34-1.14.57-2.04,1.9-3.26,2.25s-2.6.64-3.87.76c-1.44.13-2.97-.42-4.39-.62-1.43-.2-3.06-.11-4.38-.67-1.32-.55-2.46-1.69-3.59-2.61-.46-.37-.47-1.07-.65-1.63-.03-.08.29-.15.27-.23Z" style="fill:#fabe00;"/><path d="M91.77,182.24c1.28.88,3.03.44,6.69.44,17.13,0,34.37.27,51.41.28,3.67,0,3.67.05,7.34.05,3.67,0,3.67.61,7.34.61,3.67,0,3.67-.62,7.35-.62,3.67,0,3.67.84,7.34.84,3.67,0,3.67-.47,7.34-.47,3.67,0,3.67-.42,7.34-.42,3.67,0,3.67.85,7.33.85,12.26.01,24.54-.43,36.72-.42,3.67,0,3.67.07,7.35.07,3.67,0,3.67.07,7.34.07s3.67.09,7.35.1c3.68,0,3.68-.78,7.35-.78,12.26,0,24.5.69,36.75.7,3.68,0,3.68-.41,7.36-.41,3.68,0,6.28,1.29,7.4.24s-.07-3.59-.09-7.14c-.02-3.56.23-3.56.21-7.12-.04-7.73-7.65-9.93-14.23-9.81-6.82.12-13.51-.59-20.19-.6-3.92,0-3.92.67-7.84.67-3.92,0-6.95,1.39-8.24.43-1.29-.97-.06-3.91-.05-7.37.01-3.47.2-3.47.21-6.94.01-3.47-.18-3.47-.18-6.94,0-1.44-.8-2.94-2.36-2.94-6.83,0-13.66.67-20.47.67-3.42,0-3.42-1.03-6.83-1.03-1.56,0-3.12,1.86-3.12,3.29,0,3.46.41,3.46.4,6.93-.01,3.47-.31,3.47-.32,6.94-.01,4.72.31,7.51-5.52,6.85-5.84-.66-11.75-.47-17.63-.27-10.37.34-20.65.11-30.92.1-3.88,0-4.66,2.59-7.55,0-2.58-2.31-.38-3.24-.37-6.7.01-3.47-.22-3.47-.2-6.94.01-3.47-.1-3.47-.09-6.94,0-1.44-.75-3.06-2.32-3.06-3.41,0-3.41.53-6.83.53-6.83,0-13.63.34-20.46.34-1.56,0-2.23.75-2.23,2.19,0,3.46-.87,3.46-.88,6.92s.63,3.47.62,6.94c-.01,3.47,2.3,4.77-.3,7.06-2.94,2.59-4.03-.24-7.95-.25-3.91,0-3.91-.2-7.82-.21-5.23,0-10.45.29-15.67.28-3.92,0-3.92.16-7.85.15-3.92,0-2.23-.44-5.7,1.4-3.82,2.02-4.69,4.59-4.69,8.15,0,3.56-.94,12.4.34,13.29Z"/><path d="M118.63,58.03c-1.45.6-1.45.46-2.75,1.2-1.79,1.02-4.08,1.66-6.46,3.19-1.88,1.21-3.92,2.62-6.11,4.15-1.89,1.32-3.76,2.95-5.84,4.52-1.87,1.42-3.62,3.18-5.61,4.79-1.84,1.49-4.02,2.73-5.94,4.39-1.8,1.56-3.94,2.89-5.79,4.61-1.76,1.63-2.87,4.04-4.66,5.81s-3.14,3.71-4.87,5.53c-1.66,1.75-3.75,3.15-5.42,5.02-1.61,1.81-3.15,3.72-4.75,5.64-1.55,1.86-3.18,3.7-4.71,5.66-1.49,1.91-3.44,3.53-4.91,5.55-1.42,1.96-2.15,4.46-3.54,6.53-1.36,2.01-2.95,3.9-4.28,6.01s-2.42,4.25-3.66,6.4c-1.22,2.1-2.51,4.2-3.68,6.39-1.15,2.15-2.62,4.16-3.71,6.4-1.07,2.19-1.93,4.51-2.94,6.78-1,2.22-1.46,4.69-2.4,6.99-.92,2.25-2.77,4.18-3.62,6.51-.84,2.29-.98,4.85-1.76,7.21s-1.67,4.61-2.36,6.99-.87,4.83-1.49,7.23c-.6,2.36-1.89,4.58-2.42,7-.52,2.38-.86,4.83-1.31,7.27-.44,2.39-.24,4.92-.6,7.38-.36,2.41-1.21,4.78-1.49,7.24s-.63,4.86-.84,7.34.51,4.94.38,7.42c-.13,2.43-.57,4.86-.63,7.34-.06,2.43-.35,4.89-.33,7.37.02,2.44.58,4.88.67,7.37.09,2.43-.94,4.95-.78,7.43.15,2.43.32,4.91.55,7.39.22,2.43,1.21,4.81,1.5,7.29.3,2.43,1.26,4.76,1.68,7.2.42,2.41.69,4.84,1.22,7.26s.17,5.01.81,7.41,2.45,4.4,3.18,6.77.18,5.12,1.01,7.45c.82,2.31,1.88,4.57,2.8,6.86.91,2.28,1.74,4.63,2.75,6.88,1,2.24,5.7,10.95,6.87,13.12,1.17,2.16,2.41,4.3,3.67,6.43,1.25,2.11,2.85,4.03,4.19,6.1s6.42,10.56,7.92,12.52c1.49,1.96,3.63,3.42,5.2,5.31,1.57,1.89,2.86,4.04,4.51,5.88s4.03,2.97,5.75,4.73c1.72,1.76,11.44,2.12,9.87.32s-8.03-9.13-9.45-11.06-2.19-4.42-3.53-6.4-2.81-3.97-4.07-6c-1.29-2.08-2.65-4.08-3.83-6.16-1.21-2.13-2.48-4.2-3.57-6.32-1.12-2.17-5.28-10.94-6.2-13.14-.95-2.26-1.45-4.67-2.28-6.9-.86-2.3-1.69-4.56-2.43-6.83-.77-2.33-1.11-4.74-1.77-7.03-.68-2.36-1.89-4.54-2.46-6.84s-.38-4.91-.87-7.23c-.51-2.41-1.2-4.73-1.6-7.06s-1.22-4.77-1.53-7.11c-.33-2.46-.25-4.9-.48-7.23-.24-2.49-.28-4.91-.43-7.23-.16-2.52-.77-4.91-.83-7.21-.06-2.57-.16-4.99-.13-7.25.04-2.64-.01-5.08.11-7.25.16-2.85.94-5.25,1.15-7.19.01-.67.11-.63.16-1.3.24-.03-.17.11-.14-.09.46-3.68-.12-2.73.63-7.41.33-2.06,1.15-4.45,1.74-7.23.47-2.21,1.62-4.47,2.28-7.06.58-2.25,1.1-4.66,1.86-7.16.68-2.26.28-5,1.13-7.44.78-2.26,2.13-4.42,3.06-6.8.88-2.24,2.57-4.21,3.6-6.54s1.71-4.58,2.82-6.86c1.06-2.18,1.86-4.55,3.06-6.77,1.15-2.14,2.42-4.27,3.71-6.44,1.24-2.09,2.09-4.5,3.46-6.61,1.33-2.04,3.17-3.8,4.64-5.85,1.42-1.99,2.51-4.28,4.05-6.26,1.5-1.92,3.4-3.6,5.03-5.51,1.59-1.86,3.79-3.2,5.5-5.03,1.67-1.79,3.37-3.55,5.16-5.31,1.27-1.25,2.26-2.66,3.42-3.98.43-.49.86-2.82-4.8,1.59-1.57,1.22-3.56,2.55-5.77,4.1-1.77,1.23-3.14,3.32-5.16,4.88-1.75,1.36-4.26,2-6.15,3.61-1.72,1.46-3.65,2.87-5.44,4.55-1.66,1.55-2.76,3.82-4.45,5.56-1.6,1.64-3.11,3.43-4.71,5.24-1.53,1.72-2.79,3.7-4.3,5.58-1.45,1.8-3.5,3.18-4.91,5.13-1.36,1.87-2.72,4.01-4.03,6.02.7-2.36,1.79-4.74,2.55-7.04.78-2.33,1.81-4.54,2.65-6.81.86-2.3,1.27-4.75,2.19-6.99.93-2.28,2.12-4.42,3.11-6.62,1.01-2.25,1.53-4.69,2.59-6.87s2.21-4.38,3.34-6.52,2.79-4.06,3.98-6.16,2.05-4.48,3.31-6.54c1.28-2.11,2.3-4.36,3.61-6.38,1.34-2.07,3.09-3.93,4.46-5.91,1.41-2.03,2.49-4.17,3.92-6.11,1.47-1.99,2.97-3.94,4.45-5.83,1.53-1.95,3.97-3.11,5.5-4.96,1.59-1.91,2.88-3.99,4.46-5.79,1.65-1.87,3.43-3.53,5.06-5.27,1.71-1.83,3.04-3.92,4.71-5.61,1.77-1.79,3.55-3.47,5.26-5.09,1.84-1.75,3.17-3.93,4.91-5.48,1.92-1.71,4.21-2.81,5.98-4.27,2.03-1.67,4.21-2.84,6-4.18,2.2-1.65,4.18-3.29,1.89-2.34Z"/><path d="M348.2,244.02c-3.41-1.61-3.46-1.51-6.86-3.13-3.41-1.61-2.99-2.5-6.4-4.11-3.42-1.62-3.64-1.14-7.06-2.75-1.45-.69-2.24-1.19-2.95-1.62,0,0-5.95-10.16-6.25-10.67-3.69-6.3-6.23-12.74-9.26-19.32-1.58-3.43-2-3.24-3.46-6.72-.66-1.55-2.16-2.77-4.31-2.77-3.72,0-11.16-.63-14.88-.63-12.4,0-24.86.9-37.21.9-3.72,0-3.72.4-7.44.4s-3.72-.91-7.44-.91-18.61.89-22.33.89-3.72-.05-7.43-.05-11.16-.95-14.89-.95c-12.44,0-24.89.18-37.33.52-10.02.28-19.75-.72-29.7-.72-3.73,0-3.73.17-7.46.17s-3.73.99-7.46.99c-2.15,0-3.79.55-4.43,2.1-1.45,3.47-1.32,3.53-2.77,7-1.45,3.47-1.46,3.47-2.91,6.92-2.68,6.41-6.28,12.47-9.59,18.57-.46.85-.93,1.71-1.55,2.46-2.7,3.29-8.17,4.51-11.96,6.3-3.41,1.62-3.15,2.18-6.56,3.8q-3.41,1.62-6.83,3.24c-3.35,1.59-1.99,4.91,1.95,4.91,3.61,0,3.61.85,7.23.85s3.61-.18,7.23-.18,3.62.35,7.24.35,3.62-1.05,7.24-1.05l-.65.35c0,3.66,1.04,3.67,1.04,7.32,0,7.34-.93,14.66-.93,22.01,0,3.67,1.13,3.67,1.13,7.33s-.78,3.67-.78,7.33.45,3.67.45,7.33-.44,3.67-.44,7.35.13,3.67.13,7.35c0,2.53-.27,5.07-.02,7.52.25,2.51,1.18,4.91,1.67,7.34.5,2.47,1.16,4.87,1.9,7.23.75,2.4,1.49,4.79,2.47,7.06,1,2.31,2.14,4.53,3.36,6.69,1.23,2.19,2,4.7,3.44,6.73,14.1,19.82,35.83,26.63,58.93,26.63,3.77,0,3.77-.11,7.54-.11s18.87.91,22.65.91,3.78-.18,7.55-.18,26.44.03,30.22.03c23.09,0,45.23-.79,63.18-16.94,3.62-3.25,7.74-6.25,10.72-10.45,1.44-2.02,2.4-4.4,3.63-6.59,1.22-2.16,2.05-4.52,3.05-6.83.98-2.28,2.45-4.4,3.2-6.8.74-2.36.79-4.93,1.29-7.4.49-2.42.47-4.91.72-7.42.25-2.46.39-25.74.39-29.41s.05-3.67.05-7.32c0-9.78.52-19.56.52-29.35,0-3.67-.01-3.67-.01-7.35l.09.19c3.43,0,3.43-.6,6.86-.6s3.43,0,6.86,0,3.44-.22,6.87-.22,3.44.38,6.87.38c3.95,0,5.25-3.31,1.91-4.9ZM221.48,244.9c3.34-9.49,13.91-8.54,19.32-8.83,4.58-.01,10.39,3.68,10.79,5.35,1.33,5.47-3.67,2.06-2.57,9.89.01,1.88,2.49,6.55-3.27,13.08-3.43,3.76-8.99,5.39-14.06,5.39-3.96-.77-6.53-.79-10.21-3.92-.36-.45-.66-.97-.91-1.52-2.94-8.29-1.12-15.31.9-19.44ZM159.42,241.46c2.06-3.77,4.69-5.75,13.01-7.45.64-.13,14.79,0,18.96,17.21.13.52.04,1.07.08,1.6.04.64.09,1.28.14,1.93.01,3.64.9,9-.54,12.21-1.26,2.8-15.98,7.04-28.13,1.03-3.83-1.89-3.97-9.39-2.53-15.05,1.43-5.66-2.37-7.21-1-11.49ZM190.16,323.02c-.2,2.69-9.21,7.97-23.34,7.12-2.7-.16-5.36-.37-7.51-2.22-.38-.46-.69-.99-.95-1.55-.66-2.94-.39-5.77-.24-8.73.16-3.19,1.35-18.82,12.51-20.3,2.8-.37,5.61.66,8.41,1.06,2.39.34,5.57.3,7.63,1.67,2.52,1.68,3.32,5.26,3.72,8.06.7,4.97.14,9.94-.23,14.89ZM250.87,327.19c-.56,1.88-1.94,3.5-4.01,3.5-1.89.14-3.78.25-5.69.33-.63.02-1.27.04-1.91.05-1.43.05-2.9.15-4.39.22-.74.04-1.49.07-2.24.07-4.23-1.03-13.74-17.1-14.13-23.29.03-.67.08-1.33.15-2,0-.71,0-1.42.04-2.1.04-.68.11-1.34.23-1.96.12-.62.29-1.2.53-1.72.53-.59,1.09-1.08,1.69-1.5,5.41-2.54,11.76-.97,17.47-.98.73.09,6.5,1.36,7.97,4.51,5.7,12.22,3.75,12.81,4.6,18.82.12,2,.26,4.12-.31,6.05ZM256.36,287.67c-1.65,0-2.47-.05-3.3-.09-.8-.04-1.59-.09-3.18-.09s-2.33.08-3.13.16c-.82.09-1.67.18-3.35.18s-2.46-.03-3.28-.06c-.8-.03-1.6-.06-3.2-.06s-2.44-.01-3.26-.02c-.81-.01-1.61-.02-3.23-.02-1.52,0-2.26.14-3.05.29-.84.16-1.72.33-3.43.33s-2.54-.11-3.37-.22c-.8-.1-1.56-.2-3.11-.2s-2.32.09-3.12.18c-.83.09-1.68.19-3.36.19-.69,0-1.66.96-1.66,1.63,0,1.6.03,2.41.05,3.21.03.82.05,1.64.05,3.28,0,1.76-.26,2.7-.49,3.52-.21.76-.42,1.49-.42,2.97s.19,2.21.4,2.98c.23.86.47,1.75.47,3.51,0,1.61.01,2.42.03,3.22.02.81.03,1.63.03,3.26,0,1.71-.16,2.59-.31,3.43-.14.79-.28,1.53-.28,3.06s.1,2.31.21,3.11c.11.83.23,1.69.23,3.38s-.14,2.58-.28,3.41c-.13.79-.25,1.54-.25,3.09,0,2.64-1.89,4.7-4.3,4.7s-4.28-2.06-4.28-4.7c0-1.53-.13-2.27-.27-3.06-.15-.84-.31-1.71-.31-3.42,0-1.6-.03-2.41-.05-3.21-.03-.82-.05-1.64-.05-3.27,0-1.72.17-2.59.33-3.43.15-.78.29-1.52.29-3.05s-.16-2.25-.33-3.03c-.18-.85-.37-1.73-.37-3.46,0-1.63.02-2.45.05-3.27.02-.8.05-1.6.05-3.21s.07-2.5.13-3.33c.06-.79.13-1.58.13-3.16s-.07-2.34-.14-3.15c-.07-.82-.15-1.66-.15-3.33,0-.63-.85-1.55-1.49-1.55-1.76,0-2.7-.26-3.52-.49-.76-.21-1.49-.42-2.97-.42s-2.21.19-2.98.4c-.86.23-1.75.47-3.51.47-1.61,0-2.42.01-3.22.03-.82.01-1.63.03-3.26.03-1.71,0-2.59-.16-3.43-.31-.79-.14-1.53-.28-3.06-.28s-2.31.1-3.11.21c-.83.11-1.69.23-3.38.23s-2.57-.14-3.41-.28c-.79-.13-1.54-.25-3.09-.25-1.67,0-2.52-.08-3.35-.16-.81-.08-1.58-.15-3.15-.15-2.58,0-4.18-1.53-4.18-3.99s1.6-4.98,4.18-4.98c1.68,0,2.53.1,3.36.2.8.1,1.56.18,3.12.18s2.46.03,3.27.05c.8.03,1.6.05,3.21.05s2.53.1,3.35.19c.8.09,1.56.17,3.12.17s2.24-.17,3.02-.34c.85-.19,1.73-.39,3.47-.39s2.51.07,3.33.15c.81.07,1.58.14,3.15.14,1.66,0,2.49.06,3.32.12.79.06,1.58.11,3.17.11s2.37-.06,3.16-.12c.83-.06,1.66-.12,3.32-.12,1.12,0,2.51-1.02,2.51-1.86,0-1.52-.15-2.26-.3-3.04-.17-.85-.34-1.72-.34-3.44,0-1.59-.05-2.39-.1-3.18-.05-.82-.1-1.65-.1-3.3,0-1.74.2-2.62.39-3.47.18-.78.34-1.51.34-3.02s-.17-2.23-.36-3.01c-.2-.85-.41-1.74-.41-3.48s.19-2.61.37-3.46c.17-.78.32-1.52.32-3.03s-.07-2.35-.14-3.16c-.07-.82-.15-1.67-.15-3.34,0-1.54-.12-2.3-.24-3.09-.13-.84-.27-1.7-.27-3.41,0-2.6,2.59-4.21,4.99-4.21,2.66,0,4.74,1.85,4.74,4.21,0,1.7-.13,2.56-.26,3.4-.12.79-.24,1.54-.24,3.09,0,1.65-.05,2.47-.09,3.3-.04.8-.09,1.59-.09,3.18s.08,2.33.16,3.13c.09.82.18,1.67.18,3.34s-.03,2.46-.06,3.28c-.03.8-.06,1.6-.06,3.2s-.01,2.44-.02,3.25c-.01.81-.02,1.61-.02,3.23,0,1.52.14,2.26.29,3.05.16.84.33,1.72.33,3.44s-.11,2.54-.22,3.37c-.1.8-.2,1.55-.2,3.11,0,.74,1.19,1.66,2.01,1.66,1.67,0,2.51.07,3.33.15.81.07,1.58.14,3.15.14s2.41-.02,3.22-.04c.82-.02,1.64-.04,3.27-.04s2.44.01,3.26.02c.81.01,1.61.02,3.23.02s2.38-.05,3.17-.11c.83-.06,1.66-.11,3.31-.11s2.6.17,3.45.34c.78.16,1.52.3,3.04.3,1.64,0,2.46.02,3.28.05.8.02,1.61.05,3.22.05,1.51,0,2.25-.16,3.03-.34.85-.19,1.73-.39,3.47-.39,2.55,0,4.95,2.34,4.95,4.81,0,2.62-2.57,4.24-4.95,4.24Z"/></svg>